<svg width="75" height="24" viewBox="0 0 75 24" fill="none" xmlns="http://www.w3.org/2000/svg">
<path d="M9.26136 8.09091V19H8.80682V8.09091H9.26136ZM9.16193 13.8722V14.3693C8.62216 14.5492 8.14394 14.6937 7.72727 14.8026C7.31534 14.9115 6.93419 14.9896 6.58381 15.0369C6.23816 15.0843 5.89489 15.108 5.55398 15.108C4.35133 15.0985 3.44697 14.8262 2.84091 14.2912C2.23485 13.7514 1.93182 12.8968 1.93182 11.7273V8.03409H2.38636V11.7273C2.38636 12.428 2.5 12.9938 2.72727 13.4247C2.95455 13.8509 3.30019 14.1634 3.7642 14.3622C4.22822 14.5563 4.81061 14.6534 5.51136 14.6534C6.08902 14.6534 6.68087 14.5848 7.28693 14.4474C7.89299 14.3101 8.51799 14.1184 9.16193 13.8722ZM22.5295 19.2273C21.5116 19.2273 20.6309 18.9905 19.8875 18.517C19.1441 18.0388 18.5688 17.3783 18.1616 16.5355C17.7592 15.688 17.558 14.7126 17.558 13.6094C17.558 12.5109 17.7592 11.5355 18.1616 10.6832C18.5688 9.82623 19.1299 9.15625 19.8449 8.6733C20.5646 8.18561 21.3956 7.94176 22.3378 7.94176C22.9296 7.94176 23.5002 8.05066 24.0494 8.26847C24.5987 8.48153 25.0911 8.81061 25.5267 9.25568C25.967 9.69602 26.3151 10.2524 26.5707 10.9247C26.8264 11.5923 26.9543 12.383 26.9543 13.2969V13.9219H18.4315V12.8068H25.6616C25.6616 12.1061 25.5196 11.4763 25.2355 10.9176C24.9562 10.3542 24.5655 9.90909 24.0636 9.58239C23.5665 9.25568 22.9912 9.09233 22.3378 9.09233C21.6465 9.09233 21.0381 9.27699 20.5125 9.64631C19.9869 10.0156 19.575 10.5033 19.2767 11.1094C18.9831 11.7154 18.834 12.3783 18.8293 13.098V13.7656C18.8293 14.6321 18.9784 15.3897 19.2767 16.0384C19.5797 16.6823 20.0082 17.1818 20.5622 17.5369C21.1162 17.892 21.772 18.0696 22.5295 18.0696C23.0456 18.0696 23.4978 17.9891 23.8861 17.8281C24.2791 17.6671 24.6081 17.4517 24.8733 17.1818C25.1432 16.9072 25.3468 16.6065 25.4841 16.2798L26.6844 16.6705C26.5187 17.1297 26.2464 17.5535 25.8676 17.9418C25.4936 18.33 25.0248 18.6425 24.4614 18.8793C23.9027 19.1113 23.2587 19.2273 22.5295 19.2273ZM20.4557 6.21591C20.2142 6.21591 20.0011 6.12595 19.8165 5.94602C19.6366 5.76136 19.5466 5.5483 19.5466 5.30682C19.5466 5.0464 19.6366 4.83097 19.8165 4.66051C20.0011 4.48532 20.2142 4.39773 20.4557 4.39773C20.7161 4.39773 20.9315 4.48532 21.102 4.66051C21.2772 4.83097 21.3648 5.0464 21.3648 5.30682C21.3648 5.5483 21.2772 5.76136 21.102 5.94602C20.9315 6.12595 20.7161 6.21591 20.4557 6.21591ZM24.092 6.21591C23.8506 6.21591 23.6375 6.12595 23.4528 5.94602C23.2729 5.76136 23.183 5.5483 23.183 5.30682C23.183 5.0464 23.2729 4.83097 23.4528 4.66051C23.6375 4.48532 23.8506 4.39773 24.092 4.39773C24.3525 4.39773 24.5679 4.48532 24.7384 4.66051C24.9135 4.83097 25.0011 5.0464 25.0011 5.30682C25.0011 5.5483 24.9135 5.76136 24.7384 5.94602C24.5679 6.12595 24.3525 6.21591 24.092 6.21591ZM34.4643 8.54545V8.09091H42.3052V8.54545H38.6404V19H38.1859V8.54545H34.4643ZM50.6178 19V8.09091H51.0723V13.3182H52.4075L56.7257 8.09091H57.3223L53.0041 13.3182L57.4928 19H56.9104L52.791 13.7727H51.0723V19H50.6178ZM68.7244 19.2273C67.8674 19.2273 67.0979 18.9811 66.4161 18.4886C65.7343 17.9915 65.1945 17.3168 64.7968 16.4645C64.4038 15.6075 64.2073 14.6439 64.2073 13.5739C64.2073 12.4991 64.4038 11.5355 64.7968 10.6832C65.1945 9.83097 65.7343 9.15862 66.4161 8.66619C67.0979 8.16903 67.8674 7.92045 68.7244 7.92045C69.5814 7.92045 70.3484 8.16903 71.0255 8.66619C71.7073 9.16335 72.2471 9.83807 72.6448 10.6903C73.0425 11.5426 73.2414 12.5038 73.2414 13.5739C73.2414 14.6439 73.0425 15.6075 72.6448 16.4645C72.2518 17.3168 71.7144 17.9915 71.0326 18.4886C70.3508 18.9811 69.5814 19.2273 68.7244 19.2273ZM68.7244 18.7727C69.4961 18.7727 70.1874 18.5455 70.7982 18.0909C71.4138 17.6364 71.8991 17.0161 72.2542 16.2301C72.6093 15.4441 72.7869 14.5587 72.7869 13.5739C72.7869 12.589 72.6069 11.706 72.2471 10.9247C71.892 10.1387 71.409 9.51847 70.7982 9.06392C70.1874 8.60464 69.4961 8.375 68.7244 8.375C67.9573 8.375 67.266 8.60464 66.6505 9.06392C66.0397 9.51847 65.5544 10.1387 65.1945 10.9247C64.8394 11.706 64.6619 12.589 64.6619 13.5739C64.6619 14.5587 64.8394 15.4441 65.1945 16.2301C65.5496 17.0161 66.0326 17.6364 66.6434 18.0909C67.2589 18.5455 67.9526 18.7727 68.7244 18.7727Z" fill="#FEBB39"/>
</svg>
