<svg width="91" height="201" viewBox="0 0 91 201" fill="none" xmlns="http://www.w3.org/2000/svg">
<rect x="16" y="84" width="59" height="55" rx="10" fill="#6D6B6C"/>
<path d="M83 189.886L71.5 135.326L66 135.832L70 190.896L83 189.886Z" fill="#57635F"/>
<path d="M71 190.391L70 199.484H90V193.927L82 189.381L71 190.391Z" fill="#775645"/>
<rect x="69" y="197.969" width="22" height="2.02073" fill="#513C2B"/>
<path d="M20 190.896L21 136.842L27.5 137.852L33 191.907L20 190.896Z" fill="url(#paint0_linear_10_415)"/>
<path d="M32 191.401L33 200.495H13V194.938L21 190.391L32 191.401Z" fill="#775645"/>
<rect width="22" height="2.02073" transform="matrix(-1 0 0 1 34 198.979)" fill="#513C2B"/>
<path fill-rule="evenodd" clip-rule="evenodd" d="M73.0317 135.326C71.2093 137.779 68.2902 139.368 65 139.368H26C22.7098 139.368 19.7907 137.779 17.9683 135.326H73.0317Z" fill="#57635F"/>
<path d="M3 101.984C46.4559 127.308 57.4079 120.016 67.5 91.8809H73.5C66.4377 128.831 53.2395 136.016 16 128.759L14 130.78L6.5 126.233L9 113.098L0 106.531L3 101.984Z" fill="url(#paint1_radial_10_415)"/>
<path d="M72.5 99.9637L71.5 102.49L64 99.9637L65 96.9326L72.5 99.9637Z" fill="white"/>
<path d="M68 88.8497L73.5 90.3653L73 100.974L64 98.9534L68 88.8497Z" fill="#6D6B6C"/>
<path d="M87.5 101.984C44.0441 127.308 33.0921 120.016 23 91.8809H17C24.0623 128.831 37.2605 136.016 74.5 128.759L76.5 130.78L84 126.233L81.5 113.098L90.5 106.531L87.5 101.984Z" fill="#FED09E"/>
<path d="M18 99.9637L19 102.49L26.5 99.9637L25.5 96.9326L18 99.9637Z" fill="white"/>
<path d="M22.5 88.8497L17 90.3653L17.5 100.974L26.5 98.9534L22.5 88.8497Z" fill="#6D6B6C"/>
<rect width="62.965" height="78.4738" rx="13" transform="matrix(0.992928 -0.118717 0.116328 0.993211 6.19952 10.3776)" fill="#FED09E"/>
<path d="M80.0473 49.4269C80.0473 54.6808 76.3806 58.015 74.5473 59.0253H71.0473V45.3854L76.5473 44.8803C77.714 44.2067 80.0473 44.173 80.0473 49.4269Z" fill="#FED09E"/>
<path d="M6.0473 56.8136C6.0473 62.0675 9.71397 65.4017 11.5473 66.4121H15.0473V52.7722L9.5473 52.267C8.38064 51.5934 6.0473 51.5597 6.0473 56.8136Z" fill="#FED09E"/>
<path d="M13.5182 81.3224C12.2041 72.4393 11.6641 66.9933 11 56.5783H12C12.5367 62.2629 14.4527 63.8275 18.5547 64.658L66.9051 59.1032C71.9925 57.9624 73.4781 55.8642 74 51.5284H74.9635C75.5356 59.5368 76.6998 63.9542 80 71.7277H76.9781C77.6748 77.4761 76.9797 80.3887 74.9635 85.3622H72.4453C72.5439 90.5072 71.6405 92.8678 68.9197 96.4718L66.4015 94.9569C64.7158 97.515 63.6128 98.4153 61.365 98.9967L59.854 94.9569C55.3982 97.2777 53.4478 99.2151 50.2847 103.037C46.013 103.17 43.6881 102.686 39.708 100.512V103.037C36.0936 101.66 34.3141 100.782 31.6496 98.9967V102.027C27.3806 98.312 25.4861 95.891 23.0876 90.917L22.0803 94.9569C18.8832 89.6256 17.5901 86.2582 16.5401 79.3024L13.5182 81.3224Z" fill="url(#paint2_radial_10_415)"/>
<path d="M4.04734 16.7811C3.64734 27.693 5.88067 46.25 7.04734 54.1645C9.44734 53.7604 10.714 58.3744 11.0473 60.7319H12.5473C11.5473 52.649 9.44733 35.2707 9.04733 30.421C8.64733 25.5713 11.5473 25.0324 13.0473 25.3692C16.714 25.5376 27.1473 25.5713 39.5473 24.3588C55.0473 22.8433 60.0473 20.3174 65.5473 19.307C69.9473 18.4987 71.0473 21.6645 71.0473 23.3485L74.0473 53.1542H75.0473C75.0473 51.4702 75.1473 47.9003 75.5473 47.092C75.9473 46.2837 76.714 46.0816 77.0473 46.0816L74.0473 11.2241L73.0473 10.2137L72.0473 9.20338C69.2473 7.18266 66.214 6.34069 65.0473 6.1723L65.5473 2.13085H58.5473H56.5473H54.5473L47.0473 3.14121V0.110121C37.4473 -0.698169 29.3807 3.14121 26.5473 5.16193L23.5473 1.12048L18.0473 4.15157L15.0473 6.1723L13.0473 7.68784L7.54733 12.2345L5.5473 14.2552L4.04734 16.7811Z" fill="#FCC636"/>
<path d="M4.04734 20.7125C3.64734 31.6244 5.88069 46.2501 7.04736 54.1646C9.44736 53.7605 10.714 58.3744 11.0474 60.732H12.5474C11.5474 52.6491 9.44735 35.2708 9.04735 30.4211C8.64735 25.5713 11.5474 25.0325 13.0474 25.3692C16.714 25.5376 27.1474 25.5713 39.5474 24.3589C55.0474 22.8433 60.0474 20.3174 65.5474 19.3071C69.9474 18.4988 71.0474 21.6646 71.0474 23.3485L74.0474 53.1542H75.0474C75.0474 51.4703 75.1474 47.9004 75.5474 47.0921C75.9474 46.2838 76.714 46.0817 77.0474 46.0817L74.0473 15.1555C73.0631 13.4716 69.8852 10.1037 65.0473 10.1037L64 6.56742C57.3702 5.68941 53.6572 5.73518 47.0473 7.0726V4.04151C37.4473 3.23322 29.3807 7.0726 26.5473 9.09332L23.5473 5.05187C12.3852 10.3058 5.89645 17.6814 4.04734 20.7125Z" fill="url(#paint3_radial_10_415)"/>
<ellipse cx="23.5474" cy="51.1335" rx="5.5" ry="5.55699" fill="#985A4B" stroke="#985A4B"/>
<ellipse cx="23.5474" cy="51.1335" rx="5.5" ry="5.55699" fill="url(#paint4_radial_10_415)"/>
<path d="M27.5473 49.1128C27.5473 50.2288 27.5473 49.618 27.0473 50.6284C27.0473 49.1128 27.0473 49.1128 26.0473 48.1025C25.0473 47.0921 23.9428 46.5869 25.0474 46.5869C26.1519 46.5869 27.5473 47.9968 27.5473 49.1128Z" fill="#F4EFEF"/>
<ellipse cx="59.5474" cy="47.092" rx="5.5" ry="5.55699" fill="#985A4B" stroke="#985A4B"/>
<ellipse cx="59.5474" cy="47.092" rx="5.5" ry="5.55699" fill="url(#paint5_radial_10_415)"/>
<path d="M63.5473 45.0713C63.5473 46.1873 63.5473 45.5765 63.0473 46.5869C63.0473 45.0713 63.0473 45.0713 62.0473 44.061C61.0473 43.0506 59.9428 42.5454 61.0474 42.5454C62.1519 42.5454 63.5473 43.9553 63.5473 45.0713Z" fill="#F4EFEF"/>
<path d="M52.5106 64.6183C52.4863 64.3433 52.2436 64.1404 51.9686 64.1652L33.6188 65.8207C33.0718 65.87 32.2564 66.0365 31.6206 66.4037C31.3001 66.5887 30.9862 66.8472 30.797 67.2064C30.5983 67.5837 30.565 68.0201 30.7247 68.4851C31.0499 69.4323 32.1493 71.4145 34.0635 73.0853C35.992 74.7685 38.7709 76.1542 42.4298 75.8241C46.0989 75.4931 48.6962 73.5014 50.33 71.2072C51.9496 68.9331 52.66 66.3088 52.5106 64.6183Z" fill="url(#paint6_radial_10_415)" stroke="#FCDEBA" stroke-linejoin="round"/>
<path d="M51.1756 65.6292L50.4163 67.4785L33.1015 69.931L32.03 68.2469C32.03 68.2469 32.4096 67.3222 36.0713 66.9919L51.1756 65.6292Z" fill="#E5EEDB"/>
<path d="M48.1488 71.2446L35.9155 72.3483C35.9936 73.2316 37.7495 74.854 42.2663 74.4465C46.7832 74.039 47.9132 72.1563 48.1488 71.2446Z" fill="#E5EEDB"/>
<path d="M8.06035 45.3892L74.0532 37.9318" stroke="#785649" stroke-width="2"/>
<path d="M34.5724 42.4353L35.6042 53.0205C35.8891 55.9435 33.7748 58.5465 30.8818 58.8344L17.786 60.1375C14.8929 60.4253 12.3167 58.2891 12.0317 55.3661L10.9999 44.7809" stroke="#785649"/>
<path d="M70.5725 38.3939L71.6043 48.9791C71.8892 51.9021 69.7749 54.5051 66.8819 54.793L53.786 56.0961C50.893 56.384 48.3167 54.2478 48.0318 51.3247L47 40.7395" stroke="#785649"/>
<defs>
<linearGradient id="paint0_linear_10_415" x1="26.5" y1="136.842" x2="26.5" y2="191.907" gradientUnits="userSpaceOnUse">
<stop stop-color="#2E3331"/>
<stop offset="0.270833" stop-color="#57635F"/>
</linearGradient>
<radialGradient id="paint1_radial_10_415" cx="0" cy="0" r="1" gradientUnits="userSpaceOnUse" gradientTransform="translate(70 107.5) rotate(156.801) scale(99.0051 184.651)">
<stop stop-color="#F0A671"/>
<stop offset="1" stop-color="#FED09E"/>
</radialGradient>
<radialGradient id="paint2_radial_10_415" cx="0" cy="0" r="1" gradientUnits="userSpaceOnUse" gradientTransform="translate(45.5 77.2927) rotate(65.5764) scale(47.1607 63.3761)">
<stop stop-color="#FCC636"/>
<stop offset="1" stop-color="#DD9531"/>
</radialGradient>
<radialGradient id="paint3_radial_10_415" cx="0" cy="0" r="1" gradientUnits="userSpaceOnUse" gradientTransform="translate(53.5 43.4457) rotate(-120.338) scale(67.3137 87.0276)">
<stop offset="0.00169099" stop-color="#DD9531"/>
<stop offset="1" stop-color="#DD9531" stop-opacity="0"/>
</radialGradient>
<radialGradient id="paint4_radial_10_415" cx="0" cy="0" r="1" gradientUnits="userSpaceOnUse" gradientTransform="translate(23.5474 51.1335) rotate(90) scale(5.55699 5.5)">
<stop stop-color="#616566"/>
<stop offset="0.817708" stop-color="#454849"/>
<stop offset="1"/>
</radialGradient>
<radialGradient id="paint5_radial_10_415" cx="0" cy="0" r="1" gradientUnits="userSpaceOnUse" gradientTransform="translate(59.5474 47.092) rotate(90) scale(5.55699 5.5)">
<stop stop-color="#616566"/>
<stop offset="0.817708" stop-color="#454849"/>
<stop offset="1"/>
</radialGradient>
<radialGradient id="paint6_radial_10_415" cx="0" cy="0" r="1" gradientUnits="userSpaceOnUse" gradientTransform="translate(41.9357 70.4695) rotate(84.9496) scale(4.87734 10.549)">
<stop stop-color="#1F0202"/>
<stop offset="1" stop-color="#660707"/>
</radialGradient>
</defs>
</svg>
