<svg width="296" height="171" viewBox="0 0 296 171" fill="none" xmlns="http://www.w3.org/2000/svg">
<line x1="156.5" y1="71.5" x2="163.5" y2="71.5" stroke="black" stroke-linecap="round"/>
<path d="M158.652 65L163.848 68" stroke="black" stroke-linecap="round"/>
<path d="M164.196 74.5L159 77.5" stroke="black" stroke-linecap="round"/>
<path d="M6.5 140H213V111.5M213 37V12.5H290.5" stroke="black" stroke-linecap="round"/>
<path d="M252.5 9L259.5 16" stroke="black" stroke-linecap="round"/>
<path d="M259 9L252 16" stroke="black" stroke-linecap="round"/>
<circle cx="292" cy="12" r="3.5" fill="#D4313D" stroke="black"/>
<circle cx="6" cy="140" r="3.5" fill="#4F965C" stroke="black"/>
<path d="M168 38C168 36.8954 168.895 36 170 36H257C258.105 36 259 36.8954 259 38V58C259 59.1046 258.105 60 257 60H170C168.895 60 168 59.1046 168 58V38Z" fill="#C2D2D2" stroke="black"/>
<path d="M168 66C168 64.8954 168.895 64 170 64H257C258.105 64 259 64.8954 259 66V86C259 87.1046 258.105 88 257 88H170C168.895 88 168 87.1046 168 86V66Z" fill="#C2D2D2" stroke="black"/>
<path d="M168 94C168 92.8954 168.895 92 170 92H257C258.105 92 259 92.8954 259 94V114C259 115.105 258.105 116 257 116H170C168.895 116 168 115.105 168 114V94Z" fill="#C2D2D2" stroke="black"/>
<circle cx="175" cy="44" r="3" fill="#4F965C" stroke="black"/>
<circle cx="175" cy="72" r="3" fill="#D4313D" stroke="black"/>
<circle cx="175" cy="100" r="3" fill="#4F965C" stroke="black"/>
<circle cx="184" cy="44" r="3" fill="#D8834A" stroke="black"/>
<circle cx="184" cy="72" r="3" fill="#D8834A" stroke="black"/>
<circle cx="184" cy="100" r="3" fill="#D8834A" stroke="black"/>
<line x1="237.5" y1="39.5" x2="237.5" y2="56.5" stroke="black" stroke-linecap="round"/>
<line x1="237.5" y1="67.5" x2="237.5" y2="84.5" stroke="black" stroke-linecap="round"/>
<line x1="237.5" y1="95.5" x2="237.5" y2="112.5" stroke="black" stroke-linecap="round"/>
<line x1="240.5" y1="39.5" x2="240.5" y2="56.5" stroke="black" stroke-linecap="round"/>
<line x1="240.5" y1="67.5" x2="240.5" y2="84.5" stroke="black" stroke-linecap="round"/>
<line x1="240.5" y1="95.5" x2="240.5" y2="112.5" stroke="black" stroke-linecap="round"/>
<line x1="243.5" y1="39.5" x2="243.5" y2="56.5" stroke="black" stroke-linecap="round"/>
<line x1="243.5" y1="67.5" x2="243.5" y2="84.5" stroke="black" stroke-linecap="round"/>
<line x1="243.5" y1="95.5" x2="243.5" y2="112.5" stroke="black" stroke-linecap="round"/>
<line x1="246.5" y1="39.5" x2="246.5" y2="56.5" stroke="black" stroke-linecap="round"/>
<line x1="246.5" y1="67.5" x2="246.5" y2="84.5" stroke="black" stroke-linecap="round"/>
<line x1="246.5" y1="95.5" x2="246.5" y2="112.5" stroke="black" stroke-linecap="round"/>
<line x1="249.5" y1="39.5" x2="249.5" y2="56.5" stroke="black" stroke-linecap="round"/>
<line x1="249.5" y1="67.5" x2="249.5" y2="84.5" stroke="black" stroke-linecap="round"/>
<line x1="249.5" y1="95.5" x2="249.5" y2="112.5" stroke="black" stroke-linecap="round"/>
<line x1="252.5" y1="39.5" x2="252.5" y2="56.5" stroke="black" stroke-linecap="round"/>
<line x1="252.5" y1="67.5" x2="252.5" y2="84.5" stroke="black" stroke-linecap="round"/>
<line x1="252.5" y1="95.5" x2="252.5" y2="112.5" stroke="black" stroke-linecap="round"/>
<path d="M57.4404 153.051C57.4404 153.051 88.7589 127.766 91.7589 116.266C94.7588 104.766 97.7589 99.2661 97.7589 115.266C97.7588 131.266 64.9463 158.961 64.9463 158.961L57.4404 153.051Z" fill="url(#paint0_linear_103_3)"/>
<path d="M57.5117 152.318L51.9491 156.219L62.5441 169.097L65.7635 166.448L65.7433 159.042L57.5117 152.318Z" fill="#785746"/>
<rect x="52.4229" y="155.155" width="17.7181" height="1.04224" transform="rotate(50.554 52.4229 155.155)" fill="#523B2C"/>
<path d="M87.489 162.293L54.8651 116.835L57.0262 111.308L94.6088 155.921L87.489 162.293Z" fill="#58635F"/>
<path d="M85.1077 159.738L86.5896 166.369L102.537 161.494L101.318 157.508L94.4656 154.698L85.1077 159.738Z" fill="#785746"/>
<rect x="85.7866" y="165.525" width="17.7181" height="1.04224" transform="rotate(-16.9964 85.7866 165.525)" fill="#523B2C"/>
<path d="M31.1068 100.045C37.707 89.0753 49.2198 82.0877 54.1511 79.9651C58.2534 79.4008 64.0463 79.6532 54.3994 85.1772C42.3408 92.0822 39.9825 107.584 40.2486 113.168C40.5147 118.752 42.1639 120.868 43.0063 122.298C43.8486 123.728 44.2616 127.059 42.0798 127.226C39.8979 127.394 39.4419 123.319 38.3779 122.653C37.7129 124.946 39.4686 129.295 38.7681 130.844C38.0677 132.392 36.1746 133.285 32.6678 132.807L32.5455 132.79C29.1156 132.324 27.1992 132.063 25.8803 128.471C24.5458 124.837 22.8565 113.757 31.1068 100.045Z" fill="url(#paint1_radial_103_3)"/>
<path fill-rule="evenodd" clip-rule="evenodd" d="M48.7385 89.6882L44.8095 85.5091C48.5442 82.7711 51.9835 80.8981 54.1511 79.9651C58.2535 79.4008 64.0464 79.6533 54.3995 85.1773C52.2056 86.4335 50.3328 87.9743 48.7385 89.6882Z" fill="white"/>
<path fill-rule="evenodd" clip-rule="evenodd" d="M50.2927 88.9689L45.3116 84.5426C48.8667 81.9744 52.1447 80.1894 54.3196 79.2509C59.0654 78.6074 65.9117 78.8624 55.3315 85.0306C53.3927 86.1609 51.7245 87.4952 50.2927 88.9689Z" fill="url(#paint2_linear_103_3)"/>
<path d="M126.681 79.4797C124.181 80.8637 106.488 80.1067 101.156 79.4797C97.3209 77.9175 92.4301 74.8028 103.547 74.8414C117.442 74.8897 124.12 69.3498 126.681 64.3802C129.242 59.4107 131.971 50.0482 131.971 48.3884C131.971 39.3802 130.81 27.3802 130.681 26.3802C130.552 25.3802 135.092 24.7718 135.681 25.8802C137.009 28.3802 136 34.17 137.681 34.3802C141.681 34.8802 143.291 35.2503 146.681 36.3802C149.681 37.3802 150.681 43.3802 147.681 44.8802C147.681 48.8802 147.119 52.3533 146.681 54.8802C146.02 58.6947 140.681 71.7287 126.681 79.4797Z" fill="url(#paint3_radial_103_3)"/>
<path fill-rule="evenodd" clip-rule="evenodd" d="M110.704 73.7647L112.018 79.3482C107.415 79.8524 103.5 79.7552 101.156 79.4796C97.3209 77.9174 92.43 74.8028 103.546 74.8413C106.075 74.8501 108.467 74.452 110.704 73.7647Z" fill="white"/>
<path fill-rule="evenodd" clip-rule="evenodd" d="M108.999 73.6107L111.1 79.9343C106.737 80.3812 103.006 80.2884 100.653 80.0139C96.2211 78.1987 90.4191 74.5552 102.666 74.5025C104.91 74.4928 107.022 74.1712 108.999 73.6107Z" fill="url(#paint4_linear_103_3)"/>
<rect x="52.5211" y="73.937" width="47.9431" height="44.8164" rx="6" fill="#514F50"/>
<path fill-rule="evenodd" clip-rule="evenodd" d="M53.2525 115.627C54.2707 117.49 56.2483 118.753 58.5211 118.753H94.4642C96.7369 118.753 98.7146 117.49 99.7327 115.627H53.2525Z" fill="#54635E"/>
<path d="M104.52 50.2132C104.962 54.7777 100.956 56.6664 98.8984 57.0402C98.1843 53.2699 96.9435 45.5018 97.693 44.5915C98.4426 43.6813 101.497 44.2232 102.93 44.608C103.276 44.5745 104.078 45.6487 104.52 50.2132Z" fill="#FBC996"/>
<path d="M45.0311 57.0205C45.473 61.585 49.7666 62.6701 51.8581 62.6421C51.8356 58.8049 51.563 50.943 50.6527 50.1934C49.7424 49.4439 46.8489 50.5618 45.516 51.2144C45.1702 51.2479 44.5891 52.456 45.0311 57.0205Z" fill="#FBC996"/>
<path d="M91.2959 75.2219C87.2468 76.6611 80.6293 78.6108 67.5364 78.5696C61.7755 78.5516 54.676 78.7678 52.8285 72.664C50.9809 66.5602 48.9569 56.1105 48.1758 51.6486L44.008 24.8272L51.3867 19.9242L87.0259 14.9027L96.8647 19.1856L98.7732 38.896C99.6547 44.3952 101.391 57.2812 101.284 64.8307C101.178 72.3803 95.345 73.7828 91.2959 75.2219Z" fill="url(#paint5_radial_103_3)"/>
<path d="M56.9458 6.34394C47.5733 11.9825 42.8078 17.6393 41.5967 19.7629C42.1509 35.3469 45.4728 45.7268 46.3686 49.2058C49.1443 49.1071 49.6408 54.195 50.2379 56.5143C49.3598 49.914 47.4079 35.55 46.6248 30.8967C45.8416 26.2435 47.9775 25.5174 49.1433 25.736C51.3417 26.0479 58.9688 26.3227 71.889 24.927C88.0393 23.1823 86.7858 20.4963 91.7837 19.9284C95.782 19.4741 96.6909 24.0449 96.6455 26.3871L99.8039 50.0704C99.5378 42.5901 101.032 41.1846 101.812 41.4169C101.306 34.4133 99.9429 19.2481 98.5429 14.6168C97.143 9.98549 93.204 9.21537 91.4095 9.40922L91.2571 5.12362C82.0046 5.4527 77.1676 6.92504 75.9056 7.62008L75.7947 4.50328C68.0954 5.08919 62.1507 7.97925 60.1408 9.35104L56.9458 6.34394Z" fill="#FBC336"/>
<path d="M57.8212 9.44151C48.6164 15.0741 43.938 20.7278 42.7494 22.8506C43.3036 38.4346 45.2067 49.2895 46.0889 52.7689C48.8159 52.672 50.674 57.287 51.2621 59.6066C50.3953 53.0059 48.4686 38.641 47.6963 33.9873C46.924 29.3337 49.022 28.6089 50.1675 28.8282C52.3276 29.1415 59.8212 29.4211 72.5142 28.0335C88.3804 26.2989 87.1471 23.6121 92.0571 23.0474C95.9851 22.5956 96.8809 27.1668 96.8378 29.5089L99.9556 53.1937C99.6895 45.7134 101.157 44.3089 101.923 44.5417C101.421 37.5379 100.073 22.3722 98.6946 17.7401C97.3163 13.108 92.1874 12.726 90.4244 12.9187L90.2869 9.05224C81.1968 9.37554 77.689 10.0352 76.4496 10.7294L76.3387 7.61264C68.7747 8.19373 62.9359 11.08 60.9621 12.4505L57.8212 9.44151Z" fill="url(#paint6_linear_103_3)"/>
<circle cx="60.0556" cy="49.9748" r="4.16897" transform="rotate(-5.53062 60.0556 49.9748)" fill="url(#paint7_radial_103_3)"/>
<path d="M61.8792 47.1804C61.0091 46.8458 60.4793 47.1414 60.3231 47.331L61.461 48.268C61.9161 48.6428 62.755 49.0153 63.1175 49.1547C63.0673 48.636 62.7493 47.515 61.8792 47.1804Z" fill="#D9D9D9"/>
<circle cx="87.9646" cy="46.2252" r="4.16897" transform="rotate(-5.53062 87.9646 46.2252)" fill="url(#paint8_radial_103_3)"/>
<path d="M89.7883 43.4309C88.9182 43.0963 88.3884 43.3919 88.2322 43.5815L89.37 44.5185C89.8252 44.8933 90.664 45.2658 91.0266 45.4052C90.9764 44.8865 90.6584 43.7655 89.7883 43.4309Z" fill="#D9D9D9"/>
<path fill-rule="evenodd" clip-rule="evenodd" d="M50.0002 51.9353L50.3689 51.8853L50.9487 56.3947C51.3009 59.1336 53.8046 61.0529 56.541 60.6816L96.0288 55.3234C98.7651 54.9521 100.698 52.4308 100.346 49.692L100.131 48.0223C100.448 48.1357 100.62 48.2724 100.62 48.4353C100.62 50.0353 103.54 60.7686 105 65.9353C103.832 64.7353 102.567 65.4353 102.08 65.9353C103.637 69.9353 102.729 75.9353 102.08 78.4353C102.08 77.2353 100.133 75.9353 99.1595 75.4353C99.5489 82.2353 97.0503 85.9353 95.7524 86.9353L95.2657 84.4353C94.0975 87.6353 91.2096 89.102 89.9117 89.4353C90.3011 87.4353 89.425 85.9353 88.9382 85.4353L82.1241 90.9353L82.1241 92.9353C79.3984 92.9353 75.4722 90.602 73.8497 89.4353L72.3896 91.9353C69.6639 91.5353 67.3601 89.102 66.5489 87.9353L66.5489 90.9353C62.6551 88.5353 60.7081 83.602 60.2214 81.4353L58.2745 85.4353C55.9382 82.6353 54.7052 75.9353 54.3807 72.9353L52.4338 73.9353C50.8763 70.3353 50.1624 57.7686 50.0002 51.9353ZM74.3365 74.0223C77.5622 74.0223 80.1772 70.0076 80.1772 67.5223C80.1772 64.0223 76.5887 60.0223 73.363 60.0223C70.1373 60.0223 68.4958 64.5223 68.4958 69.5223C68.4958 72.0076 71.1107 74.0223 74.3365 74.0223Z" fill="url(#paint9_radial_103_3)"/>
<path d="M74.5002 72.5223C75.9583 72.5223 77.2125 71.6042 78.0748 70.5106C78.9372 69.4169 79.5002 68.0342 79.5002 66.9152C79.5002 65.3849 78.7392 63.7985 77.6812 62.6057C76.6289 61.4193 75.1913 60.5223 73.7502 60.5223C72.2214 60.5223 71.1507 61.6208 70.4882 63.0739C69.822 64.5353 69.5002 66.4787 69.5002 68.4866C69.5002 70.8211 71.8578 72.5223 74.5002 72.5223Z" fill="url(#paint10_radial_103_3)" stroke="#FEDCB7"/>
<path d="M73.0002 62.0223C72.0002 62.5224 72.0002 63.5224 71.5002 64.5224L76.5002 63.0223C76.0002 62.3557 74.6002 61.2223 73.0002 62.0223Z" fill="#D9D9D9"/>
<path d="M46.0677 46.098L101.886 38.599" stroke="#785645"/>
<path d="M99.675 38.8087L100.802 46.8986C101.199 49.7491 99.2104 52.3819 96.3599 52.779L84.3042 54.4587C81.4536 54.8559 78.8209 52.867 78.4237 50.0165L77.2966 41.9266" stroke="#785645"/>
<path d="M70.7286 42.6586L71.8557 50.7485C72.2529 53.599 70.264 56.2318 67.4135 56.629L55.3578 58.3087C52.5072 58.7058 49.8745 56.717 49.4773 53.8664L48.3501 45.7765" stroke="#785645"/>
<defs>
<linearGradient id="paint0_linear_103_3" x1="104.137" y1="127.906" x2="58.3763" y2="154.652" gradientUnits="userSpaceOnUse">
<stop offset="0.109375" stop-color="#222826"/>
<stop offset="0.734375" stop-color="#58635F"/>
</linearGradient>
<radialGradient id="paint1_radial_103_3" cx="0" cy="0" r="1" gradientUnits="userSpaceOnUse" gradientTransform="translate(42.7271 95.8963) rotate(88.9503) scale(40.699 29.1019)">
<stop stop-color="#FBC996"/>
<stop offset="1" stop-color="#EB9065"/>
</radialGradient>
<linearGradient id="paint2_linear_103_3" x1="56.1839" y1="80.232" x2="47.2028" y2="86.3089" gradientUnits="userSpaceOnUse">
<stop stop-color="#332F31"/>
<stop offset="0.677083" stop-color="#514F50"/>
</linearGradient>
<radialGradient id="paint3_radial_103_3" cx="0" cy="0" r="1" gradientUnits="userSpaceOnUse" gradientTransform="translate(120.057 67.9754) rotate(-61.4224) scale(50.2337 28.0577)">
<stop stop-color="#FBC996"/>
<stop offset="1" stop-color="#EB9065"/>
</radialGradient>
<linearGradient id="paint4_linear_103_3" x1="99.5288" y1="78.2322" x2="110.345" y2="77.4591" gradientUnits="userSpaceOnUse">
<stop stop-color="#332F31"/>
<stop offset="0.677083" stop-color="#514F50"/>
</linearGradient>
<radialGradient id="paint5_radial_103_3" cx="0" cy="0" r="1" gradientUnits="userSpaceOnUse" gradientTransform="translate(73 34.5224) rotate(86.4965) scale(49.0918 42.4258)">
<stop stop-color="#FBC996"/>
<stop offset="1" stop-color="#EB9065"/>
</radialGradient>
<linearGradient id="paint6_linear_103_3" x1="24.5" y1="17.5" x2="108.5" y2="33" gradientUnits="userSpaceOnUse">
<stop stop-color="#F4B835"/>
<stop offset="1" stop-color="#E29C32"/>
</linearGradient>
<radialGradient id="paint7_radial_103_3" cx="0" cy="0" r="1" gradientUnits="userSpaceOnUse" gradientTransform="translate(60.0556 49.9748) rotate(90) scale(4.16897)">
<stop stop-color="#A09696"/>
<stop offset="0.8125" stop-color="#423E3E"/>
<stop offset="1"/>
</radialGradient>
<radialGradient id="paint8_radial_103_3" cx="0" cy="0" r="1" gradientUnits="userSpaceOnUse" gradientTransform="translate(87.9646 46.2252) rotate(90) scale(4.16897)">
<stop stop-color="#A09696"/>
<stop offset="0.8125" stop-color="#423E3E"/>
<stop offset="1"/>
</radialGradient>
<radialGradient id="paint9_radial_103_3" cx="0" cy="0" r="1" gradientUnits="userSpaceOnUse" gradientTransform="translate(74 68.5) rotate(63.9046) scale(27.2809 33.408)">
<stop stop-color="#FBC336"/>
<stop offset="1" stop-color="#DB9130"/>
</radialGradient>
<radialGradient id="paint10_radial_103_3" cx="0" cy="0" r="1" gradientUnits="userSpaceOnUse" gradientTransform="translate(74.5002 66.5223) rotate(90) scale(5.5 4.5)">
<stop/>
<stop offset="1" stop-color="#6C0000"/>
</radialGradient>
</defs>
</svg>
