<svg width="119" height="161" viewBox="0 0 119 161" fill="none" xmlns="http://www.w3.org/2000/svg">
<path d="M79.5001 155L75.0001 109L79.5001 106L88.5001 153.5L79.5001 155Z" fill="#58635F"/>
<path d="M79.0001 154.5L78.5001 161H94.5001V157L89.0001 152.5L79.0001 154.5Z" fill="#785746"/>
<rect x="78.0001" y="160" width="17" height="1" fill="#523B2C"/>
<path d="M47.5001 155L44.8052 106.962L39.8858 104.715L38.5457 153.041L47.5001 155Z" fill="url(#paint0_linear_4_165)"/>
<path d="M48.0002 154.5L48.5002 161H32.5002V157L38.0002 152.5L48.0002 154.5Z" fill="#785746"/>
<rect width="17" height="1" transform="matrix(-1 0 0 1 49.0002 160)" fill="#523B2C"/>
<path d="M22.2116 101.287C24.4154 89.2033 32.3788 79.0273 36.085 75.4498C39.5757 73.5521 44.8607 71.8142 38.0755 80.0437C29.5941 90.3307 32.7344 105.043 34.8671 109.965C36.9998 114.888 39.1974 116.227 40.4383 117.225C41.6793 118.222 43.1797 121.072 41.2783 121.962C39.3768 122.853 37.5855 119.35 36.4047 119.113C36.5855 121.397 39.6362 124.705 39.5327 126.332C39.4291 127.96 38.0328 129.403 34.7233 130.163L34.6078 130.19C31.371 130.934 29.5625 131.35 27.1607 128.573C24.7305 125.764 19.4567 116.392 22.2116 101.287Z" fill="#FBC996"/>
<path fill-rule="evenodd" clip-rule="evenodd" d="M34.5244 86.0123L29.5808 83.5938C32.0043 79.8698 34.456 77.0223 36.0851 75.4498C39.5757 73.5521 44.8607 71.8142 38.0756 80.0437C36.5325 81.9153 35.3741 83.9333 34.5244 86.0123Z" fill="white"/>
<path fill-rule="evenodd" clip-rule="evenodd" d="M35.6755 84.8395L29.7037 82.5561C32.0235 79.0454 34.3603 76.3316 35.9941 74.7517C40.0354 72.5647 46.2667 70.4718 38.8623 79.596C37.5055 81.268 36.4608 83.0313 35.6755 84.8395Z" fill="url(#paint1_linear_4_165)"/>
<path d="M96.1559 99.7799C93.952 87.6959 85.9886 77.52 82.2824 73.9425C78.7918 72.0448 73.5068 70.3069 80.2919 78.5364C88.7733 88.8233 85.633 103.536 83.5004 108.458C81.3677 113.38 79.1701 114.719 77.9291 115.717C76.6881 116.715 75.1877 119.565 77.0892 120.455C78.9906 121.346 80.782 117.843 81.9627 117.606C81.7819 119.89 78.7312 123.198 78.8348 124.825C78.9383 126.452 80.3346 127.896 83.6442 128.656L83.7596 128.682C86.9964 129.426 88.805 129.842 91.2068 127.066C93.6369 124.257 98.9107 114.885 96.1559 99.7799Z" fill="#FBC996"/>
<path fill-rule="evenodd" clip-rule="evenodd" d="M83.8431 84.505L88.7867 82.0865C86.3632 78.3625 83.9115 75.515 82.2824 73.9425C78.7917 72.0448 73.5067 70.3068 80.2919 78.5364C81.8349 80.408 82.9933 82.426 83.8431 84.505Z" fill="white"/>
<path fill-rule="evenodd" clip-rule="evenodd" d="M82.6919 83.3322L88.6638 81.0488C86.3439 77.5381 84.0071 74.8243 82.3733 73.2444C78.332 71.0574 72.1007 68.9644 79.5051 78.0887C80.8619 79.7607 81.9066 81.524 82.6919 83.3322Z" fill="url(#paint2_linear_4_165)"/>
<rect x="36.0001" y="69" width="46" height="43" rx="6" fill="url(#paint3_radial_4_165)"/>
<path fill-rule="evenodd" clip-rule="evenodd" d="M36.8028 109C37.8402 110.793 39.7793 112 42.0001 112H76.0001C78.221 112 80.16 110.793 81.1974 109H36.8028Z" fill="#54635E"/>
<path d="M86.4418 48.3394C86.4418 52.7394 82.4418 54.1727 80.4418 54.3394C80.1085 50.6727 79.6418 43.1394 80.4418 42.3394C81.2418 41.5394 84.1085 42.3394 85.4418 42.8394C85.7752 42.8394 86.4418 43.9394 86.4418 48.3394Z" fill="#FBC996"/>
<path d="M29.0001 49.3394C29.0001 53.7394 33.0001 55.1727 35.0001 55.3394C35.3334 51.6727 35.8001 44.1394 35.0001 43.3394C34.2001 42.5394 31.3334 43.3394 30.0001 43.8394C29.6668 43.8394 29.0001 44.9394 29.0001 49.3394Z" fill="#FBC996"/>
<path d="M71.5001 71C67.5001 72 61.0001 73.25 48.5001 72C43.0001 71.45 36.2001 71 35.0001 65C33.8001 59 32.8335 48.8333 32.5001 44.5L31.0001 18.5L38.5001 14.5L73.0001 13L82.0001 18V37C82.3335 42.3333 82.8001 54.8 82.0001 62C81.2001 69.2 75.5001 70 71.5001 71Z" fill="#FBC996"/>
<path d="M45.0649 2.04482C35.5927 6.56302 30.5186 11.5246 29.1656 13.4406C28.2538 28.3746 30.4664 38.5947 31.0001 42C33.6601 42.1624 33.6637 47.0673 34.0195 49.3375C33.7913 42.9529 33.2554 29.0547 32.9378 24.5385C32.6203 20.0222 34.7271 19.5262 35.8203 19.8428C37.891 20.3439 45.1494 21.3117 57.6173 21.1735C73.2023 21.0008 72.2535 18.3197 77.0791 18.2396C80.9395 18.1755 81.3848 22.6246 81.1249 24.8572L81.9511 47.7669C82.3887 40.5986 83.9455 39.3945 84.6692 39.6885C84.8332 32.9532 84.934 18.3444 84.0253 13.792C83.1166 9.23961 79.4262 8.1399 77.6945 8.15909L77.9452 4.05224C69.0786 3.51091 64.323 4.46971 63.0536 5.01678L63.2359 2.02997C55.8289 1.87755 49.8844 4.08786 47.8381 5.21206L45.0649 2.04482Z" fill="#FBC336"/>
<path d="M45.6145 5.08395C36.303 9.61196 31.3123 14.5786 29.9809 16.496C29.0691 31.43 29.8827 41.9725 30.4035 45.3769C33.0168 45.5365 34.3645 50.1157 34.7117 52.3853C34.4943 46.0014 33.9826 32.1047 33.6754 27.5891C33.3682 23.0734 35.4387 22.5752 36.5124 22.8906C38.5464 23.3895 45.6769 24.3495 57.9271 24.198C73.2398 24.0087 72.3105 21.3288 77.0518 21.2435C80.8448 21.1753 81.2776 25.6236 81.0198 27.8564L81.8071 50.7637C82.2448 43.5954 83.7756 42.3897 84.4864 42.6829C84.6547 35.9479 84.7693 21.3399 83.8814 16.7888C82.9934 12.2377 78.1306 11.3985 76.4292 11.4196L76.6554 7.71436C67.9443 7.18253 64.5334 7.48814 63.2856 8.03652L63.4679 5.04972C56.1905 4.90521 50.3476 7.12172 48.3358 8.24803L45.6145 5.08395Z" fill="#EAA634"/>
<circle cx="44.0001" cy="44" r="4" fill="url(#paint4_radial_4_165)"/>
<path d="M46.0001 41.5C45.2001 41.1 44.6668 41.3333 44.5001 41.5L45.5001 42.5C45.9001 42.9 46.6668 43.3333 47.0001 43.5C47.0001 43 46.8001 41.9 46.0001 41.5Z" fill="#D9D9D9"/>
<circle cx="71.0001" cy="43" r="4" fill="url(#paint5_radial_4_165)"/>
<path d="M73.0001 40.5C72.2001 40.1 71.6668 40.3333 71.5001 40.5L72.5001 41.5C72.9001 41.9 73.6668 42.3333 74.0001 42.5C74.0001 42 73.8001 40.9 73.0001 40.5Z" fill="#D9D9D9"/>
<path d="M31.0001 39.0044L85.0001 37.0044" stroke="#785645"/>
<path d="M82.8694 37L83.1978 44.8301C83.3135 47.5891 81.1706 49.9195 78.4116 50.0352L66.743 50.5245C63.984 50.6402 61.6536 48.4974 61.5379 45.7384L61.2096 37.9083" stroke="#785645"/>
<path d="M54.8694 38L55.1978 45.8301C55.3135 48.5891 53.1706 50.9195 50.4116 51.0352L38.743 51.5245C35.984 51.6402 33.6536 49.4974 33.5379 46.7384L33.2096 38.9083" stroke="#785645"/>
<path d="M66.0001 56C66.0001 55.8595 65.941 55.7255 65.8373 55.6308C65.7336 55.5361 65.5948 55.4893 65.4549 55.5021L48.9549 57.0021C48.6813 57.0269 48.479 57.2678 48.5018 57.5415C48.5947 58.6557 49.1693 60.2717 50.5666 61.611C51.9757 62.9615 54.1885 64 57.5001 64C60.8499 64 62.9987 62.6821 64.2967 60.992C65.5767 59.3254 66.0001 57.3368 66.0001 56Z" fill="url(#paint6_radial_4_165)" stroke="#FEDCB7" stroke-linejoin="round"/>
<path fill-rule="evenodd" clip-rule="evenodd" d="M63.1165 60.4244L54.0357 61.7992C54.9607 62.3014 56.1636 62.6561 57.7124 62.7292C60.461 62.8588 62.1413 61.7653 63.1165 60.4244Z" fill="#D9D9D9"/>
<path d="M63.999 57L50.0127 58.1756L51.0377 60.1629L63.5242 59.0061L63.999 57Z" fill="#E5EEDD"/>
<path d="M87.5857 38.9771C87.4994 27.7133 79.778 13.3676 75.9281 7.60275L80.7411 10.0695C88.3778 20.4657 89.7079 35.5458 89.4183 41.7863L87.5857 38.9771Z" fill="#515254"/>
<path d="M82.9504 46.0525C82.4878 51.833 80.7556 54.5591 84.8845 54.8895C89.0134 55.2199 91.9491 51.9518 92.4116 46.1713C92.8742 40.3908 91.2581 35.3337 87.1291 35.0033C83.0002 34.6728 85.1021 39.2625 82.9504 46.0525Z" fill="#505153"/>
<path fill-rule="evenodd" clip-rule="evenodd" d="M33.2632 43.9006L33.6263 43.8794L33.8321 48.4178C33.9573 51.1763 36.2935 53.2822 39.0502 53.1213L77.722 50.8646C80.4788 50.7037 82.6121 48.337 82.4869 45.5784L82.4108 43.8992C82.7106 44.0369 82.8669 44.1865 82.854 44.3489C82.7266 45.9438 84.7173 56.8703 85.7286 62.1341C84.6861 60.8471 83.3976 61.4464 82.8836 61.907C84.0826 66.0154 82.7199 71.9257 81.8887 74.3673C81.9843 73.1711 80.1911 71.7238 79.2826 71.1497C79.1207 77.9584 76.3922 81.4523 75.0482 82.3482L74.773 79.8183C73.3804 82.9173 70.4503 84.1546 69.1594 84.386C69.6979 82.4226 68.9638 80.8592 68.5294 80.3229L61.4535 85.2755L61.2943 87.2691C58.639 87.0571 54.9999 84.4258 53.5122 83.1366L51.8907 85.5151C49.2673 84.9044 47.2166 82.2996 46.5192 81.0735L46.2805 84.064C42.6782 81.3688 41.1742 76.2996 40.8725 74.102L38.6576 77.9379C36.6045 74.965 35.9365 68.1904 35.8592 65.1747L33.883 66.0201C32.6522 62.3103 32.9569 49.728 33.2632 43.9006ZM66.9893 56.6354C66.993 56.5892 66.9965 56.544 67 56.5C67.2049 53.9344 64.4046 54.331 60.3233 54.909C58.8547 55.117 57.2201 55.3484 55.5 55.4738C53.3716 55.629 51.7428 55.6289 50.509 55.6289C47.975 55.6288 47.1074 55.6287 47 56.9738C46.8022 59.4512 50 65.5 57 65.5C66.3312 65.0089 66.7886 59.1897 66.9893 56.6354Z" fill="url(#paint7_radial_4_165)"/>
<path d="M27.0409 40.5C25.8409 29.3 31.8742 14.1667 35.0409 8L30.5409 11C24.1409 22.2 24.5409 37.3333 25.5409 43.5L27.0409 40.5Z" fill="#515254"/>
<circle cx="42.0409" cy="59" r="4" fill="#505153"/>
<path d="M32.4535 47C33.5729 52.6899 35.6051 55.2004 31.5409 56C27.4766 56.7996 24.1871 53.8879 23.0677 48.198C21.9483 42.5081 22.9766 37.2996 27.0409 36.5C31.1051 35.7004 29.5409 40.5 32.4535 47Z" fill="#505153"/>
<path fill-rule="evenodd" clip-rule="evenodd" d="M40.8168 60.7991C33.9058 59.1729 29.4427 55.377 28.0409 53.6247L28.8218 53C30.0866 54.5811 34.3569 58.2518 41.0458 59.8256L40.8168 60.7991Z" fill="#505153"/>
<path d="M31.5 20.9417C31.9 17.3417 34 15.1084 35 14.4417C48.3333 14.1084 75.7 13.6417 78.5 14.4417C81.3 15.2417 82.6667 18.4417 83 19.9417V31.4417C83 32.2417 82.3333 33.7751 82 33.9417H59L56 29.9417L52 33.9417C47.5 33.9417 37.8 34.0417 35 34.4417C32.2 34.8417 31.1667 33.2751 31 32.4417C31 30.1084 31.1 24.5417 31.5 20.9417Z" fill="#525254"/>
<path d="M31.5 20.9417C31.9 17.3417 34 15.1084 35 14.4417C48.3333 14.1084 75.7 13.6417 78.5 14.4417C81.3 15.2417 82.6666 18.4417 83 19.9417L83 29C83 29.8 82.3333 31.3333 82 31.5H59L56 27.5L52 31.5C47.5 31.5 37.8 31.6 35 32C32.2 32.4 31.1667 30.8333 31 30C31 27.6667 31.1 24.5417 31.5 20.9417Z" fill="url(#paint8_linear_4_165)"/>
<path fill-rule="evenodd" clip-rule="evenodd" d="M49 9.5L53.8646 18.8238C54.4363 19.45 54.8137 20.1515 54.9467 20.8978L55 21H54.9633C54.9876 21.1647 55 21.3315 55 21.5C55 24.5376 50.9706 27 46 27C41.0294 27 37 24.5376 37 21.5C37 21.3315 37.0124 21.1647 37.0367 21H37L40 9.5C40 8.11929 42.0147 7 44.5 7C46.9853 7 49 8.11929 49 9.5Z" fill="url(#paint9_linear_4_165)"/>
<path fill-rule="evenodd" clip-rule="evenodd" d="M67 12.75L61 20.8H61.2609C61.0904 21.1844 61 21.5863 61 22C61 24.7614 65.0294 27 70 27C74.9706 27 79 24.7614 79 22C79 21.5863 78.9096 21.1844 78.7391 20.8H79L76 12.75C76 11.7835 73.9853 11 71.5 11C69.0147 11 67 11.7835 67 12.75Z" fill="url(#paint10_linear_4_165)"/>
<path d="M47.5 8.5C47.5 8.92632 47.1831 9.41741 46.4392 9.83069C45.7122 10.2346 44.674 10.5 43.5 10.5C42.326 10.5 41.2878 10.2346 40.5608 9.83069C39.8169 9.41741 39.5 8.92632 39.5 8.5C39.5 8.07368 39.8169 7.58259 40.5608 7.16931C41.2878 6.76544 42.326 6.5 43.5 6.5C44.674 6.5 45.7122 6.76544 46.4392 7.16931C47.1831 7.58259 47.5 8.07368 47.5 8.5Z" fill="#77CDE2" stroke="#525254"/>
<path d="M66.5 12.5C66.5 12.9263 66.8169 13.4174 67.5608 13.8307C68.2878 14.2346 69.326 14.5 70.5 14.5C71.674 14.5 72.7122 14.2346 73.4392 13.8307C74.1831 13.4174 74.5 12.9263 74.5 12.5C74.5 12.0737 74.1831 11.5826 73.4392 11.1693C72.7122 10.7654 71.674 10.5 70.5 10.5C69.326 10.5 68.2878 10.7654 67.5608 11.1693C66.8169 11.5826 66.5 12.0737 66.5 12.5Z" fill="#77CDE2" stroke="#525254"/>
<defs>
<linearGradient id="paint0_linear_4_165" x1="37.6644" y1="105.072" x2="45.7431" y2="155.283" gradientUnits="userSpaceOnUse">
<stop offset="0.109375" stop-color="#222826"/>
<stop offset="0.734375" stop-color="#58635F"/>
</linearGradient>
<linearGradient id="paint1_linear_4_165" x1="38.0001" y1="75" x2="32.0001" y2="83.5" gradientUnits="userSpaceOnUse">
<stop stop-color="#644325"/>
<stop offset="0.703125" stop-color="#F48117"/>
</linearGradient>
<linearGradient id="paint2_linear_4_165" x1="80.3673" y1="73.4927" x2="86.3673" y2="81.9927" gradientUnits="userSpaceOnUse">
<stop stop-color="#644325"/>
<stop offset="0.703125" stop-color="#F48117"/>
</linearGradient>
<radialGradient id="paint3_radial_4_165" cx="0" cy="0" r="1" gradientUnits="userSpaceOnUse" gradientTransform="translate(59 63.5) rotate(90) scale(27.5 29.4186)">
<stop stop-color="#9F5715"/>
<stop offset="1" stop-color="#F48117"/>
</radialGradient>
<radialGradient id="paint4_radial_4_165" cx="0" cy="0" r="1" gradientUnits="userSpaceOnUse" gradientTransform="translate(44.0001 44) rotate(90) scale(4)">
<stop stop-color="#A09696"/>
<stop offset="0.8125" stop-color="#423E3E"/>
<stop offset="1"/>
</radialGradient>
<radialGradient id="paint5_radial_4_165" cx="0" cy="0" r="1" gradientUnits="userSpaceOnUse" gradientTransform="translate(71.0001 43) rotate(90) scale(4)">
<stop stop-color="#A09696"/>
<stop offset="0.8125" stop-color="#423E3E"/>
<stop offset="1"/>
</radialGradient>
<radialGradient id="paint6_radial_4_165" cx="0" cy="0" r="1" gradientUnits="userSpaceOnUse" gradientTransform="translate(57.2501 59.75) rotate(90) scale(3.75 8.25)">
<stop/>
<stop offset="1" stop-color="#6C0000"/>
</radialGradient>
<radialGradient id="paint7_radial_4_165" cx="0" cy="0" r="1" gradientUnits="userSpaceOnUse" gradientTransform="translate(55.3248 62.2794) rotate(68.9861) scale(27.1621 32.7917)">
<stop stop-color="#FBC336"/>
<stop offset="1" stop-color="#DB9130"/>
</radialGradient>
<linearGradient id="paint8_linear_4_165" x1="79" y1="15" x2="33" y2="30" gradientUnits="userSpaceOnUse">
<stop stop-color="#737479"/>
<stop offset="1" stop-color="#505155"/>
</linearGradient>
<linearGradient id="paint9_linear_4_165" x1="52" y1="15.5" x2="39" y2="17" gradientUnits="userSpaceOnUse">
<stop stop-color="#737479"/>
<stop offset="1" stop-color="#525254"/>
</linearGradient>
<linearGradient id="paint10_linear_4_165" x1="64" y1="16.95" x2="76.8246" y2="19.0639" gradientUnits="userSpaceOnUse">
<stop stop-color="#737479"/>
<stop offset="1" stop-color="#525254"/>
</linearGradient>
</defs>
</svg>
