<svg width="142" height="201" viewBox="0 0 142 201" fill="none" xmlns="http://www.w3.org/2000/svg">
<path d="M54.5053 190.37L70.1824 142.996H61.2703L42.1094 187.908L54.5053 190.37Z" fill="url(#paint0_linear_10_375)"/>
<path d="M42.3487 190.689L41.3518 199.661H61.29V194.178L53.3147 189.692L42.3487 190.689Z" fill="#775645"/>
<rect x="40.3549" y="198.166" width="21.932" height="1.99382" fill="#513C2B"/>
<path d="M13.9568 190.19L32.0208 137.294L26.3184 134.224L1.75464 187.738L13.9568 190.19Z" fill="url(#paint1_linear_10_375)"/>
<path d="M1.99386 190.689L0.996948 199.661H20.9351V194.178L12.9598 189.692L1.99386 190.689Z" fill="#775645"/>
<rect x="6.10352e-05" y="198.165" width="21.932" height="1.99382" fill="#513C2B"/>
<rect x="26.6509" y="78.9551" width="58.1401" height="61.1076" rx="13" transform="rotate(9.40203 26.6509 78.9551)" fill="#6D6B6C"/>
<path d="M128.96 99.1325C105.098 102.291 87.7278 97.8166 82.0255 95.1847L77.2005 97.3779C82.8151 101.589 96.7931 106.736 103.08 108.783L128.96 121.503L136.417 123.258L141.68 115.362V104.835H140.365V101.326L138.171 99.1325L136.417 82.9028L133.346 84.6574L128.96 99.1325Z" fill="url(#paint2_linear_10_375)"/>
<path d="M28.0729 89.4195L24.5638 95.5605C43.1621 115.212 103.08 121.294 130.715 121.879L135.978 82.8399C132.118 81.4363 129.983 84.3021 129.399 85.9104L125.451 104.333C62.9886 108.895 34.5063 96.2915 28.0729 89.4195Z" fill="#FED09C"/>
<path d="M41.0128 107.028L37.723 105.593L42.1094 96.5007L46.4957 98.4148L41.0128 107.028Z" fill="white"/>
<path d="M44.3026 96.9393L38.6003 107.028L27.6343 101.764L23.6865 94.7461L25.0024 89.4824H31.582L44.3026 96.9393Z" fill="#6D6B6C"/>
<rect x="21.9319" y="21.0547" width="63.1641" height="63.1641" rx="11" fill="url(#paint3_radial_10_375)"/>
<path d="M17.1069 62.7254C17.8088 70.0946 20.9085 71.9369 22.3706 71.9369L28.9502 65.7959C28.0729 64.0413 26.8447 59.7427 28.9502 56.5845C31.0557 53.4263 33.629 55.2686 34.6525 56.5845V68.8664H35.9684L37.2843 31.1434C42.9867 31.4358 56.7599 32.0207 66.2345 32.0207C75.7091 32.0207 82.7566 30.851 85.096 30.2661V44.3026C86.2657 41.3783 89.1315 34.828 91.237 32.0207C93.3425 29.2134 93.284 23.5403 92.9915 21.0547L85.096 16.6683V10.966C82.6396 7.10596 78.5164 6.14095 76.7619 6.14095V2.63184C69.3927 1.5791 61.1171 3.07048 57.9004 3.94775V0C49.1276 0 41.3783 4.09397 38.6003 6.14095L34.6525 2.63184C24.4761 9.29915 17.838 16.2297 15.791 18.8615C15.9372 30.4123 16.4051 55.3563 17.1069 62.7254Z" fill="url(#paint4_linear_10_375)"/>
<path d="M17.1069 62.7254C17.8088 70.0945 20.9085 71.9368 22.3706 71.9368L28.9502 65.7959C28.0729 64.0413 26.8447 59.7426 28.9502 56.5844C31.0557 53.4262 33.629 55.2685 34.6525 56.5844L33.3366 68.8663H35.9684L37.2843 31.1434C42.9867 31.4358 56.7599 32.0206 66.2345 32.0206C75.7091 32.0206 82.7566 30.8509 85.096 30.2661V44.3025C86.2657 41.3783 89.1315 34.8279 91.237 32.0206C93.3425 29.2133 93.284 23.5403 92.9915 21.0546L85.096 16.6683C82.6396 12.8082 78.5164 11.8432 76.7619 11.8432V8.33411C69.3927 7.28137 61.1171 8.77275 57.9004 9.65002V5.70227C49.1276 5.70227 41.3783 9.79624 38.6003 11.8432L34.6525 8.33411C24.4761 15.0014 17.838 18.4228 15.791 21.0546C15.9372 32.6055 16.4051 55.3562 17.1069 62.7254Z" fill="url(#paint5_linear_10_375)"/>
<path d="M21.8297 83.9945C20.4261 81.5381 21.2449 70.6891 21.8297 65.5716H35.4275C37.3283 67.3262 43.5862 70.1335 53.4117 67.3262C65.6936 63.8171 77.5369 62.9398 83.2392 65.5716C88.9415 68.2035 86.7483 70.8353 87.6256 78.7308C88.3274 85.0472 92.012 89.5506 93.7665 91.0127L89.3802 90.1355L93.7665 94.5218C91.6611 95.5746 87.6256 96.1302 85.871 96.2764L89.3802 98.9082L75.3437 100.663L77.5369 104.611C70.1678 104.611 64.2315 101.979 62.1845 100.663L63.9391 104.611C55.8681 103.207 49.1715 97.8847 46.8321 95.3991V98.9082C39.8139 97.5046 34.2578 91.89 32.357 89.2582L31.4798 93.2059C28.8479 91.1589 23.2334 86.4509 21.8297 83.9945Z" fill="url(#paint6_radial_10_375)"/>
<path d="M81.2512 69.3051C81.2512 69.0289 81.0273 68.8051 80.7512 68.8051H62.3283C61.7797 68.8051 60.9536 68.8965 60.2886 69.2015C59.9537 69.3551 59.6178 69.5819 59.3971 69.92C59.1648 70.2758 59.0926 70.7058 59.2114 71.1809C59.4524 72.1448 60.3737 74.1965 62.1337 76.0132C63.907 77.8437 66.5523 79.4551 70.2239 79.4551C73.9055 79.4551 76.6675 77.7246 78.4975 75.6086C80.3112 73.5115 81.2512 70.9871 81.2512 69.3051Z" fill="url(#paint7_radial_10_375)" stroke="#FCDEBA" stroke-linejoin="round"/>
<path d="M79.8324 70.1824L78.9134 71.9369L61.4513 72.8142L60.5323 71.0597C60.5323 71.0597 60.9918 70.1824 64.668 70.1824H79.8324Z" fill="#E5EEDB"/>
<path d="M76.3233 75.446H64.0414C64.0414 76.3233 65.6475 78.0779 70.1823 78.0779C74.7172 78.0779 76.0084 76.3233 76.3233 75.446Z" fill="#E5EEDB"/>
<circle cx="56.5845" cy="53.9526" r="4.82503" fill="#985A4B" stroke="#985A4B"/>
<circle cx="56.5845" cy="53.9526" r="4.82503" fill="url(#paint8_radial_10_375)"/>
<path d="M60.0936 52.1981C60.0936 53.1671 60.0936 52.6367 59.655 53.514C59.655 52.1981 59.655 52.1981 58.7777 51.3208C57.9004 50.4435 56.9314 50.0049 57.9004 50.0049C58.8694 50.0049 60.0936 51.2291 60.0936 52.1981Z" fill="#F4EFEF"/>
<circle cx="82.0256" cy="53.9526" r="4.82503" fill="#985A4B" stroke="#985A4B"/>
<circle cx="82.0256" cy="53.9526" r="4.82503" fill="url(#paint9_radial_10_375)"/>
<path d="M85.5346 52.1981C85.5346 53.1671 85.5346 52.6367 85.096 53.514C85.096 52.1981 85.096 52.1981 84.2187 51.3208C83.3414 50.4435 82.3725 50.0049 83.3415 50.0049C84.3105 50.0049 85.5346 51.2291 85.5346 52.1981Z" fill="#F4EFEF"/>
<path d="M36.8457 47.373L90.3597 46.4957" stroke="#785649" stroke-width="2"/>
<path d="M67.9891 46.9343V57.4617C67.9891 60.3687 65.6325 62.7253 62.7254 62.7253H49.5662C46.6592 62.7253 44.3026 60.3687 44.3026 57.4617V46.9343" stroke="#785649"/>
<path d="M88.6051 46.4957V57.0231C88.6051 59.9301 87.2086 62.2867 85.4859 62.2867H77.6879C75.9652 62.2867 74.5687 59.9301 74.5687 57.0231V46.4957" stroke="#785649"/>
<path fill-rule="evenodd" clip-rule="evenodd" d="M73.6296 141.721C70.7998 145.391 66.094 147.426 61.202 146.616L29.4938 141.365C24.3557 140.515 20.4236 136.759 19.0991 132.057L73.6296 141.721Z" fill="#58635F"/>
<defs>
<linearGradient id="paint0_linear_10_375" x1="47.9225" y1="136.832" x2="47.9225" y2="191.37" gradientUnits="userSpaceOnUse">
<stop offset="0.0989583" stop-color="#2E3331"/>
<stop offset="0.442708" stop-color="#57635F"/>
</linearGradient>
<linearGradient id="paint1_linear_10_375" x1="7.47688" y1="136.855" x2="7.47688" y2="191.187" gradientUnits="userSpaceOnUse">
<stop stop-color="#57635F"/>
</linearGradient>
<linearGradient id="paint2_linear_10_375" x1="101.764" y1="111.414" x2="146.944" y2="115.362" gradientUnits="userSpaceOnUse">
<stop stop-color="#F9B382"/>
<stop offset="0.661458" stop-color="#FED09C"/>
<stop offset="0.890625" stop-color="#F9B382"/>
</linearGradient>
<radialGradient id="paint3_radial_10_375" cx="0" cy="0" r="1" gradientUnits="userSpaceOnUse" gradientTransform="translate(58.339 39.0389) rotate(115.769) scale(42.3758)">
<stop stop-color="#FDCF9D"/>
<stop offset="1" stop-color="#F5AA72"/>
</radialGradient>
<linearGradient id="paint4_linear_10_375" x1="54.4655" y1="0" x2="54.4655" y2="71.9369" gradientUnits="userSpaceOnUse">
<stop stop-color="#FDC636"/>
<stop offset="1" stop-color="#D98D2F"/>
</linearGradient>
<linearGradient id="paint5_linear_10_375" x1="54.4655" y1="-4.16533e-05" x2="54.4655" y2="71.9368" gradientUnits="userSpaceOnUse">
<stop stop-color="#EBB338"/>
<stop offset="1" stop-color="#D98D2F"/>
</linearGradient>
<radialGradient id="paint6_radial_10_375" cx="0" cy="0" r="1" gradientUnits="userSpaceOnUse" gradientTransform="translate(57.4106 84.326) rotate(-169.578) scale(36.9657 66.2535)">
<stop stop-color="#FCC436"/>
<stop offset="1" stop-color="#DC9230"/>
</radialGradient>
<radialGradient id="paint7_radial_10_375" cx="0" cy="0" r="1" gradientUnits="userSpaceOnUse" gradientTransform="translate(70.2031 74.1301) rotate(90) scale(4.82503 10.5481)">
<stop stop-color="#1F0202"/>
<stop offset="1" stop-color="#660707"/>
</radialGradient>
<radialGradient id="paint8_radial_10_375" cx="0" cy="0" r="1" gradientUnits="userSpaceOnUse" gradientTransform="translate(56.5845 53.9526) rotate(90) scale(4.82503)">
<stop stop-color="#616566"/>
<stop offset="0.817708" stop-color="#454849"/>
<stop offset="1"/>
</radialGradient>
<radialGradient id="paint9_radial_10_375" cx="0" cy="0" r="1" gradientUnits="userSpaceOnUse" gradientTransform="translate(82.0256 53.9526) rotate(90) scale(4.82503)">
<stop stop-color="#616566"/>
<stop offset="0.817708" stop-color="#454849"/>
<stop offset="1"/>
</radialGradient>
</defs>
</svg>
