<svg width="275" height="275" viewBox="0 0 275 275" fill="none" xmlns="http://www.w3.org/2000/svg">
<path d="M134.175 4.97401C135.759 2.60483 139.241 2.60482 140.825 4.97401L146.265 13.1103C147.672 15.2147 150.655 15.4995 152.435 13.6994L159.315 6.73961C161.319 4.71299 164.739 5.37212 165.846 7.99824L169.647 17.0169C170.63 19.3495 173.506 20.1938 175.594 18.763L183.668 13.2312C186.019 11.6204 189.252 12.9149 189.842 15.703L191.868 25.2781C192.392 27.7546 195.056 29.1278 197.377 28.1181L206.352 24.2142C208.965 23.0775 211.895 24.9604 211.946 27.8098L212.124 37.5953C212.169 40.1262 214.525 41.9787 216.995 41.4266L226.547 39.2917C229.328 38.67 231.849 41.0735 231.36 43.8812L229.682 53.5233C229.248 56.0172 231.211 58.282 233.741 58.2073L243.524 57.9187C246.372 57.8346 248.392 60.6716 247.381 63.3361L243.909 72.4864C243.011 74.8531 244.509 77.4484 247.008 77.8539L256.668 79.4219C259.482 79.8785 260.928 83.0466 259.431 85.4715L254.29 93.7993C252.96 95.9533 253.94 98.7852 256.317 99.6563L265.506 103.024C268.182 104.005 269.003 107.39 267.074 109.487L260.45 116.692C258.736 118.555 259.163 121.521 261.332 122.826L269.718 127.873C272.16 129.342 272.325 132.821 270.034 134.516L262.166 140.336C260.131 141.842 259.988 144.835 261.871 146.527L269.15 153.069C271.27 154.974 270.774 158.421 268.204 159.652L259.376 163.878C257.093 164.971 256.387 167.883 257.915 169.901L263.825 177.703C265.546 179.974 264.406 183.266 261.65 183.987L252.182 186.467C249.733 187.108 248.488 189.834 249.607 192.104L253.934 200.883C255.193 203.439 253.452 206.456 250.608 206.643L240.842 207.285C238.316 207.452 236.578 209.893 237.247 212.334L239.834 221.773C240.587 224.521 238.307 227.154 235.479 226.799L225.768 225.582C223.256 225.267 221.087 227.335 221.282 229.859L222.036 239.617C222.256 242.458 219.518 244.611 216.808 243.728L207.503 240.695C205.096 239.91 202.575 241.531 202.289 244.046L201.183 253.77C200.86 256.602 197.765 258.198 195.271 256.818L186.708 252.078C184.493 250.852 181.711 251.966 180.954 254.382L178.028 263.721C177.175 266.44 173.833 267.422 171.646 265.595L164.135 259.32C162.192 257.698 159.25 258.265 158.049 260.493L153.408 269.11C152.056 271.619 148.589 271.95 146.787 269.742L140.599 262.16C138.998 260.198 136.002 260.198 134.401 262.16L128.213 269.742C126.411 271.95 122.944 271.619 121.592 269.11L116.951 260.493C115.75 258.265 112.808 257.698 110.865 259.32L103.354 265.595C101.167 267.422 97.8247 266.44 96.9725 263.721L94.0457 254.382C93.2886 251.966 90.5065 250.852 88.2917 252.078L79.7287 256.818C77.2353 258.198 74.1396 256.602 73.8174 253.77L72.7109 244.046C72.4247 241.531 69.9037 239.91 67.4969 240.695L58.1918 243.728C55.4822 244.611 52.7445 242.458 52.964 239.617L53.7178 229.859C53.9128 227.335 51.7439 225.267 49.2322 225.582L39.5212 226.799C36.6934 227.154 34.4126 224.521 35.1659 221.773L37.7528 212.334C38.4219 209.893 36.6836 207.452 34.1577 207.285L24.3918 206.643C21.5481 206.456 19.8066 203.439 21.0665 200.883L25.393 192.104C26.512 189.834 25.2671 187.108 22.8183 186.467L13.3504 183.987C10.5935 183.266 9.45439 179.974 11.1752 177.703L17.0849 169.901C18.6135 167.883 17.9069 164.971 15.6237 163.878L6.79618 159.652C4.2257 158.421 3.73003 154.974 5.84969 153.069L13.129 146.527C15.0118 144.835 14.8692 141.842 12.8341 140.336L4.9659 134.516C2.67476 132.821 2.84048 129.342 5.28234 127.873L13.6682 122.826C15.8372 121.521 16.2637 118.555 14.5503 116.692L7.92574 109.487C5.99676 107.39 6.81787 104.005 9.49369 103.024L18.683 99.6563C21.0598 98.7852 22.0399 95.9533 20.7101 93.7993L15.5687 85.4715C14.0716 83.0466 15.5184 79.8785 18.3315 79.4219L27.9921 77.8539C30.4908 77.4484 31.9892 74.8531 31.0911 72.4864L27.6186 63.3361C26.6075 60.6716 28.6278 57.8346 31.4764 57.9187L41.2592 58.2073C43.7894 58.282 45.7519 56.0172 45.3179 53.5233L43.6399 43.8812C43.1513 41.0735 45.672 38.67 48.4532 39.2917L58.0046 41.4266C60.475 41.9787 62.8306 40.1262 62.8765 37.5953L63.0536 27.8098C63.1052 24.9604 66.0351 23.0775 68.6485 24.2142L77.6232 28.1181C79.9445 29.1278 82.6081 27.7546 83.1321 25.2781L85.1579 15.703C85.7478 12.9149 88.9812 11.6204 91.3322 13.2312L99.4059 18.763C101.494 20.1938 104.37 19.3495 105.353 17.0169L109.154 7.99825C110.261 5.37212 113.681 4.71298 115.685 6.7396L122.565 13.6994C124.345 15.4995 127.328 15.2147 128.735 13.1103L134.175 4.97401Z" fill="url(#paint0_radial_16_7)"/>
<circle cx="137.5" cy="137.5" r="114" stroke="#E0A419"/>
<circle cx="137.5" cy="137.5" r="108" stroke="#E0A419"/>
<path fill-rule="evenodd" clip-rule="evenodd" d="M121.316 70.974C121.936 62.052 130.4 55.1529 139.523 57.4239L142.013 58.0537C146.432 59.1606 150.353 62.405 151.67 67.2621C153.77 75.0486 156.756 91.2229 152.262 110.298C153.667 110.104 155.077 109.942 156.489 109.811C163.293 109.191 172.415 109.124 180.498 111.815C185.441 113.466 189.983 118.314 191.948 123.963C193.704 129.039 193.475 135.051 189.716 140.499C190.269 141.635 190.698 142.809 191.032 143.963C191.767 146.54 192.111 149.374 192.111 152.132C192.111 154.889 191.767 157.723 191.032 160.3C190.66 161.588 190.174 162.905 189.506 164.155C191.118 167.848 190.527 171.97 189.477 175.11C188.402 178.209 186.83 181.113 184.82 183.707C185.336 185.158 185.546 186.684 185.546 188.144C185.546 191.055 184.696 194.108 183.131 196.847C179.944 202.439 173.618 207 164.676 207V197.458C170.049 197.458 173.274 194.862 174.849 192.114C175.564 190.91 175.961 189.544 176.003 188.144C176.003 186.999 175.669 186.57 175.622 186.522L172.244 183.144L175.612 179.766C177.54 177.848 179.496 174.89 180.431 172.094C181.423 169.117 180.841 167.886 180.383 167.437L177.015 164.06L180.383 160.682C180.793 160.281 181.385 159.346 181.853 157.676C182.311 156.082 182.568 154.145 182.568 152.132C182.568 150.118 182.311 148.181 181.853 146.587C181.376 144.927 180.793 143.982 180.383 143.582L177.015 140.204L180.383 136.826C183.752 133.467 183.942 130.022 182.931 127.093C181.767 123.753 179.152 121.434 177.482 120.871C171.251 118.8 163.675 118.733 157.348 119.306C153.838 119.633 150.351 120.178 146.909 120.938L146.775 120.966L146.746 120.976C145.918 121.182 145.049 121.161 144.23 120.917C143.412 120.672 142.674 120.213 142.094 119.586C141.514 118.959 141.113 118.188 140.933 117.353C140.752 116.518 140.799 115.651 141.069 114.84C145.871 100.256 146.351 84.5942 142.452 69.7431C142.166 68.6839 141.231 67.6915 139.704 67.3098L137.204 66.6895C134.284 65.9548 131.078 68.1781 130.839 71.6325C130.124 81.9573 128.559 92.1485 126.24 98.8281C124.58 103.618 120.486 110.928 114.427 117.693C108.348 124.487 99.9318 131.148 89.4829 133.992C85.7232 135.022 83.5666 137.77 83.5666 140.194V178.383C83.5666 180.864 85.666 183.297 88.8436 183.631C101.182 184.938 107.318 188.688 112.614 191.914L112.995 192.152C115.572 193.717 117.719 194.977 120.4 195.902C123.043 196.809 126.412 197.458 131.278 197.458H164.676V207H131.278C125.505 207 121.068 206.227 117.289 204.92C114.04 203.733 110.935 202.184 108.033 200.301L107.575 200.015C102.766 197.086 98.0424 194.204 87.8416 193.125C80.5322 192.343 74.0243 186.446 74.0243 178.373V140.204C74.0243 132.093 80.5608 126.539 86.9733 124.793C95.0747 122.579 101.993 117.283 107.318 111.338C112.661 105.355 116.039 99.1239 117.232 95.6982C119.131 90.2114 120.629 81.0126 121.316 70.9836V70.974Z" fill="black"/>
<defs>
<radialGradient id="paint0_radial_16_7" cx="0" cy="0" r="1" gradientUnits="userSpaceOnUse" gradientTransform="translate(137.5 137.5) rotate(90) scale(137.5)">
<stop stop-color="#FFE818"/>
<stop offset="1" stop-color="#EEAF34"/>
</radialGradient>
</defs>
</svg>
