<svg width="119" height="178" viewBox="0 0 119 178" fill="none" xmlns="http://www.w3.org/2000/svg">
<path d="M79.5001 172L75.0001 126L79.5001 123L88.5001 170.5L79.5001 172Z" fill="#58635F"/>
<path d="M79.0001 171.5L78.5001 178H94.5001V174L89.0001 169.5L79.0001 171.5Z" fill="#785746"/>
<rect x="78.0001" y="177" width="17" height="1" fill="#523B2C"/>
<path d="M47.5001 172L44.8052 123.962L39.8858 121.715L38.5457 170.041L47.5001 172Z" fill="url(#paint0_linear_4_252)"/>
<path d="M48.0002 171.5L48.5002 178H32.5002V174L38.0002 169.5L48.0002 171.5Z" fill="#785746"/>
<rect width="17" height="1" transform="matrix(-1 0 0 1 49.0002 177)" fill="#523B2C"/>
<path d="M22.2116 118.287C24.4154 106.203 32.3788 96.0273 36.085 92.4498C39.5757 90.5521 44.8607 88.8142 38.0755 97.0437C29.5941 107.331 32.7344 122.043 34.8671 126.965C36.9998 131.888 39.1974 133.227 40.4383 134.225C41.6793 135.222 43.1797 138.072 41.2783 138.962C39.3768 139.853 37.5855 136.35 36.4047 136.113C36.5855 138.397 39.6362 141.705 39.5327 143.332C39.4291 144.96 38.0328 146.403 34.7233 147.163L34.6078 147.19C31.371 147.934 29.5625 148.35 27.1607 145.573C24.7305 142.764 19.4567 133.392 22.2116 118.287Z" fill="#FBC996"/>
<path fill-rule="evenodd" clip-rule="evenodd" d="M34.5244 103.012L29.5808 100.594C32.0043 96.8698 34.456 94.0223 36.0851 92.4498C39.5757 90.5521 44.8607 88.8142 38.0756 97.0437C36.5325 98.9153 35.3741 100.933 34.5244 103.012Z" fill="white"/>
<path fill-rule="evenodd" clip-rule="evenodd" d="M35.6755 101.84L29.7037 99.5561C32.0235 96.0454 34.3603 93.3316 35.9941 91.7517C40.0354 89.5647 46.2667 87.4718 38.8623 96.596C37.5055 98.268 36.4608 100.031 35.6755 101.84Z" fill="url(#paint1_linear_4_252)"/>
<path d="M96.1559 116.78C93.9521 104.696 85.9887 94.52 82.2825 90.9425C78.7918 89.0448 73.5068 87.3069 80.292 95.5364C88.7733 105.823 85.6331 120.536 83.5004 125.458C81.3677 130.38 79.1701 131.719 77.9292 132.717C76.6882 133.715 75.1878 136.565 77.0892 137.455C78.9907 138.346 80.782 134.843 81.9627 134.606C81.7819 136.89 78.7313 140.198 78.8348 141.825C78.9384 143.452 80.3347 144.896 83.6442 145.656L83.7597 145.682C86.9965 146.426 88.805 146.842 91.2068 144.066C93.637 141.257 98.9107 131.885 96.1559 116.78Z" fill="#FBC996"/>
<path fill-rule="evenodd" clip-rule="evenodd" d="M83.8431 101.505L88.7867 99.0865C86.3632 95.3625 83.9115 92.515 82.2824 90.9425C78.7918 89.0448 73.5068 87.3068 80.2919 95.5364C81.835 97.408 82.9934 99.426 83.8431 101.505Z" fill="white"/>
<path fill-rule="evenodd" clip-rule="evenodd" d="M82.692 100.332L88.6638 98.0488C86.344 94.5381 84.0072 91.8243 82.3734 90.2444C78.3321 88.0574 72.1008 85.9644 79.5052 95.0887C80.862 96.7607 81.9067 98.524 82.692 100.332Z" fill="url(#paint2_linear_4_252)"/>
<rect x="36.0001" y="86" width="46" height="43" rx="6" fill="#6A696A"/>
<path fill-rule="evenodd" clip-rule="evenodd" d="M36.8028 126C37.8402 127.793 39.7793 129 42.0001 129H76.0001C78.221 129 80.16 127.793 81.1974 126H36.8028Z" fill="#54635E"/>
<path d="M86.4418 65.3394C86.4418 69.7394 82.4418 71.1727 80.4418 71.3394C80.1085 67.6727 79.6418 60.1394 80.4418 59.3394C81.2418 58.5394 84.1085 59.3394 85.4418 59.8394C85.7752 59.8394 86.4418 60.9394 86.4418 65.3394Z" fill="#FBC996"/>
<path d="M29.0001 66.3394C29.0001 70.7394 33.0001 72.1727 35.0001 72.3394C35.3334 68.6727 35.8001 61.1394 35.0001 60.3394C34.2001 59.5394 31.3334 60.3394 30.0001 60.8394C29.6668 60.8394 29.0001 61.9394 29.0001 66.3394Z" fill="#FBC996"/>
<path d="M71.5001 88C67.5001 89 61.0001 90.25 48.5001 89C43.0001 88.45 36.2001 88 35.0001 82C33.8001 76 32.8335 65.8333 32.5001 61.5L31.0001 35.5L38.5001 31.5L73.0001 30L82.0001 35V54C82.3335 59.3333 82.8001 71.8 82.0001 79C81.2001 86.2 75.5001 87 71.5001 88Z" fill="#FBC996"/>
<path d="M45.0649 19.0448C35.5927 23.563 30.5186 28.5246 29.1656 30.4406C28.2538 45.3746 30.4664 55.5947 31.0001 59C33.6601 59.1624 33.6637 64.0673 34.0195 66.3375C33.7913 59.9529 33.2554 46.0547 32.9378 41.5385C32.6203 37.0222 34.7271 36.5262 35.8203 36.8428C37.891 37.3439 45.1494 38.3117 57.6173 38.1735C73.2023 38.0008 72.2535 35.3197 77.0791 35.2396C80.9395 35.1755 81.3848 39.6246 81.1249 41.8572L81.9511 64.7669C82.3887 57.5986 83.9455 56.3945 84.6692 56.6885C84.8332 49.9532 84.934 35.3444 84.0253 30.792C83.1166 26.2396 79.4262 25.1399 77.6945 25.1591L77.9452 21.0522C69.0786 20.5109 64.323 21.4697 63.0536 22.0168L63.2359 19.03C55.8289 18.8775 49.8844 21.0879 47.8381 22.2121L45.0649 19.0448Z" fill="#F89923"/>
<path d="M45.6145 22.084C36.303 26.612 31.3123 31.5786 29.9809 33.496C29.0691 48.43 29.8827 58.9725 30.4035 62.3769C33.0168 62.5365 34.3645 67.1157 34.7117 69.3853C34.4943 63.0014 33.9826 49.1047 33.6754 44.5891C33.3682 40.0734 35.4387 39.5752 36.5124 39.8906C38.5464 40.3895 45.6769 41.3495 57.9271 41.198C73.2398 41.0087 72.3105 38.3288 77.0518 38.2435C80.8448 38.1753 81.2776 42.6236 81.0198 44.8564L81.8071 67.7637C82.2448 60.5954 83.7756 59.3897 84.4864 59.6829C84.6547 52.9479 84.7693 38.3399 83.8814 33.7888C82.9934 29.2377 78.1306 28.3985 76.4292 28.4196L76.6554 24.7144C67.9443 24.1825 64.5334 24.4881 63.2856 25.0365L63.4679 22.0497C56.1905 21.9052 50.3476 24.1217 48.3358 25.248L45.6145 22.084Z" fill="#C88628"/>
<circle cx="44.0001" cy="61" r="4" fill="url(#paint3_radial_4_252)"/>
<path d="M46.0001 58.5C45.2001 58.1 44.6668 58.3333 44.5001 58.5L45.5001 59.5C45.9001 59.9 46.6668 60.3333 47.0001 60.5C47.0001 60 46.8001 58.9 46.0001 58.5Z" fill="#D9D9D9"/>
<circle cx="71.0001" cy="60" r="4" fill="url(#paint4_radial_4_252)"/>
<path d="M73.0001 57.5C72.2001 57.1 71.6668 57.3333 71.5001 57.5L72.5001 58.5C72.9001 58.9 73.6668 59.3333 74.0001 59.5C74.0001 59 73.8001 57.9 73.0001 57.5Z" fill="#D9D9D9"/>
<path d="M31.0001 56.0044L85.0001 54.0044" stroke="#785645"/>
<path d="M82.8694 54L83.1978 61.8301C83.3135 64.5891 81.1706 66.9195 78.4116 67.0352L66.743 67.5245C63.984 67.6402 61.6536 65.4974 61.5379 62.7384L61.2096 54.9083" stroke="#785645"/>
<path d="M54.8694 55L55.1978 62.8301C55.3135 65.5891 53.1706 67.9195 50.4116 68.0352L38.743 68.5245C35.984 68.6402 33.6536 66.4974 33.5379 63.7384L33.2096 55.9083" stroke="#785645"/>
<path d="M66.0001 73C66.0001 72.8595 65.941 72.7255 65.8373 72.6308C65.7336 72.5361 65.5948 72.4893 65.4549 72.5021L48.9549 74.0021C48.6813 74.0269 48.479 74.2678 48.5018 74.5415C48.5947 75.6557 49.1693 77.2717 50.5666 78.611C51.9757 79.9615 54.1885 81 57.5001 81C60.8499 81 62.9987 79.6821 64.2967 77.992C65.5767 76.3254 66.0001 74.3368 66.0001 73Z" fill="url(#paint5_radial_4_252)" stroke="#FEDCB7" stroke-linejoin="round"/>
<path fill-rule="evenodd" clip-rule="evenodd" d="M63.1165 77.4244L54.0357 78.7992C54.9607 79.3014 56.1636 79.6561 57.7124 79.7292C60.461 79.8588 62.1413 78.7653 63.1165 77.4244Z" fill="#D9D9D9"/>
<path d="M63.999 74L50.0127 75.1756L51.0377 77.1629L63.5242 76.0061L63.999 74Z" fill="#E5EEDD"/>
<path d="M87.5857 55.9771C87.4994 44.7133 79.778 30.3676 75.9281 24.6028L80.7411 27.0695C88.3778 37.4657 89.7079 52.5458 89.4183 58.7863L87.5857 55.9771Z" fill="#515254"/>
<path d="M82.9504 63.0525C82.4878 68.833 80.7556 71.5591 84.8845 71.8895C89.0134 72.2199 91.9491 68.9518 92.4116 63.1713C92.8742 57.3908 91.2581 52.3337 87.1291 52.0033C83.0002 51.6728 85.1021 56.2625 82.9504 63.0525Z" fill="#505153"/>
<path fill-rule="evenodd" clip-rule="evenodd" d="M33.2632 60.9005L33.6263 60.8794L33.8321 65.4177C33.9573 68.1763 36.2935 70.2822 39.0502 70.1213L77.722 67.8646C80.4788 67.7037 82.6121 65.337 82.4869 62.5784L82.4108 60.8992C82.7106 61.0369 82.8669 61.1865 82.854 61.3489C82.7266 62.9438 83.9887 87.2362 85 92.5C83.9575 91.213 82.669 91.8123 82.155 92.2729C83.354 96.3813 81.9913 102.292 81.1602 104.733C81.1602 104.733 79.4625 102.09 78.554 101.516C78.3921 108.324 76.3922 117.183 75.0482 118.079L74.773 115.549C73.3804 118.648 70.4503 119.886 69.1594 120.117C69.6979 118.153 68.9638 116.59 68.5294 116.054L61.4535 121.006L61.2943 123C58.639 122.788 54.9999 120.157 53.5122 118.868L51.8907 121.246C49.2673 120.635 47.2166 118.03 46.5192 116.804L46.2805 119.795C43.0242 117.359 41.9952 108.815 41.6047 105.573C41.5632 105.229 41.529 104.944 41.5 104.733L39.285 108.569C37.2319 105.596 35.9365 95.5157 35.8592 92.5L33.883 93.3454C32.6522 89.6357 32.9569 66.728 33.2632 60.9005ZM66.9893 73.6354C66.993 73.5892 66.9965 73.544 67 73.5C67.2049 70.9344 64.4046 71.331 60.3233 71.909C58.8547 72.117 57.2201 72.3484 55.5 72.4738C53.3716 72.629 51.7428 72.6289 50.509 72.6289C47.975 72.6288 47.1074 72.6287 47 73.9738C46.8022 76.4512 50 82.5 57 82.5C66.3312 82.0089 66.7886 76.1897 66.9893 73.6354Z" fill="url(#paint6_radial_4_252)"/>
<path d="M27.0409 57.5C25.8409 46.3 31.8742 31.1667 35.0409 25L30.5409 28C24.1409 39.2 24.5409 54.3333 25.5409 60.5L27.0409 57.5Z" fill="#515254"/>
<circle cx="42.0409" cy="76" r="4" fill="#3D4044"/>
<path d="M32.4535 64C33.5729 69.6899 35.6051 72.2004 31.5409 73C27.4766 73.7996 24.1871 70.8879 23.0677 65.198C21.9483 59.5081 22.9766 54.2996 27.0409 53.5C31.1051 52.7004 29.5409 57.5 32.4535 64Z" fill="#3D4044"/>
<path fill-rule="evenodd" clip-rule="evenodd" d="M40.8168 77.7991C33.9058 76.1729 29.4427 72.377 28.0409 70.6247L28.8218 70C30.0866 71.5811 34.3569 75.2518 41.0458 76.8256L40.8168 77.7991Z" fill="#3D4044"/>
<path d="M91.9393 45.009C91.9393 50.6425 92.5938 59.1437 89.6046 61.9496C83.7996 67.3987 70.8293 63.8857 58.7182 63.8857C47.5863 63.8857 33.4618 66.3181 27.4336 61.9496C23.5261 59.118 25.4971 51.527 25.4971 45.009C25.4971 28.4355 40.3707 15 58.7182 15C77.0657 15 91.9393 28.4355 91.9393 45.009Z" fill="url(#paint7_radial_4_252)"/>
<path d="M59.5 37C77 35.5 85.1667 41.5 87 45L85.5 54.5L83 52L30.5 57L28 47C31.1667 44.5 41.8514 38.5128 59.5 37Z" fill="#39373A"/>
<path d="M32.6627 72L29 48.6825C32.9679 45.7869 44.6581 39.8128 59.6751 39.0812C74.6922 38.3497 83.3301 42.7389 85.7719 45.0249V66.0563C86.3823 65.9039 86.1382 66.1478 80.2778 68.3424C72.9524 71.0856 64.5 70.1712 62 69.5C59.292 68.773 60.5908 66.5135 57.3859 66.5135C54.1811 66.5135 56.0124 69.2568 50.9762 70.1712C46.9472 70.9027 37.0885 71.6952 32.6627 72Z" fill="black"/>
<path d="M44.5 56.5L47 52M46 60L50.5 62.5M42 61L39 66.5M41 57.5L36 55" stroke="#6BCACC"/>
<circle cx="69" cy="51" r="4" stroke="#6BCACC"/>
<circle cx="43.5" cy="58.5" r="5.5" stroke="#6BCACC"/>
<path d="M36 58.5C36 60.4691 36.7588 62.2609 38 63.5991M41.5 65.7304C42.1367 65.9061 42.8074 66 43.5 66C45.6731 66 47.6303 65.0758 49 63.5991" stroke="#6BCACC"/>
<circle cx="69" cy="51" r="2" stroke="#6BCACC"/>
<circle cx="43.5" cy="58.5" r="2.5" stroke="#6BCACC"/>
<circle cx="39.5" cy="50.5" r="2" stroke="#6BCACC"/>
<path fill-rule="evenodd" clip-rule="evenodd" d="M78.634 68.8934L77.3197 40.8861C77.876 41.0497 78.4069 41.2194 78.9124 41.3936L80.1788 68.3792C79.6684 68.5678 79.1527 68.7388 78.634 68.8934Z" fill="#D9D9D9"/>
<ellipse cx="27.7296" cy="28.6936" rx="3.94085" ry="6.89648" transform="rotate(-167.402 27.7296 28.6936)" fill="url(#paint8_radial_4_252)"/>
<path d="M27.4919 29.7466L17.1507 28.3762L27.6509 27.8383C28.7173 28.6053 27.9503 29.6718 27.4919 29.7466Z" fill="#575759"/>
<ellipse cx="33.4714" cy="22.5588" rx="6" ry="10.5" transform="rotate(-35.2994 33.4714 22.5588)" fill="url(#paint9_radial_4_252)"/>
<path d="M32.5245 21.2153L44.6288 10.9326L34.5179 23.3429C32.5628 23.7645 32.1411 21.8095 32.5245 21.2153Z" fill="#575759"/>
<rect x="79" width="1" height="28" fill="black"/>
<rect x="84" y="15" width="1" height="16" fill="black"/>
<defs>
<linearGradient id="paint0_linear_4_252" x1="37.6644" y1="122.072" x2="45.7431" y2="172.283" gradientUnits="userSpaceOnUse">
<stop offset="0.109375" stop-color="#222826"/>
<stop offset="0.734375" stop-color="#58635F"/>
</linearGradient>
<linearGradient id="paint1_linear_4_252" x1="38.0001" y1="92" x2="32.0001" y2="100.5" gradientUnits="userSpaceOnUse">
<stop stop-color="#332F31"/>
<stop offset="0.677083" stop-color="#514F50"/>
</linearGradient>
<linearGradient id="paint2_linear_4_252" x1="80.3674" y1="90.4927" x2="86.3674" y2="98.9927" gradientUnits="userSpaceOnUse">
<stop stop-color="#332F31"/>
<stop offset="0.677083" stop-color="#514F50"/>
</linearGradient>
<radialGradient id="paint3_radial_4_252" cx="0" cy="0" r="1" gradientUnits="userSpaceOnUse" gradientTransform="translate(44.0001 61) rotate(90) scale(4)">
<stop stop-color="#A09696"/>
<stop offset="0.8125" stop-color="#423E3E"/>
<stop offset="1"/>
</radialGradient>
<radialGradient id="paint4_radial_4_252" cx="0" cy="0" r="1" gradientUnits="userSpaceOnUse" gradientTransform="translate(71.0001 60) rotate(90) scale(4)">
<stop stop-color="#A09696"/>
<stop offset="0.8125" stop-color="#423E3E"/>
<stop offset="1"/>
</radialGradient>
<radialGradient id="paint5_radial_4_252" cx="0" cy="0" r="1" gradientUnits="userSpaceOnUse" gradientTransform="translate(57.2501 76.75) rotate(90) scale(3.75 8.25)">
<stop/>
<stop offset="1" stop-color="#6C0000"/>
</radialGradient>
<radialGradient id="paint6_radial_4_252" cx="0" cy="0" r="1" gradientUnits="userSpaceOnUse" gradientTransform="translate(54.7941 87.7772) rotate(75.7752) scale(36.6378 34.6334)">
<stop stop-color="#FBC336"/>
<stop offset="1" stop-color="#DB9130"/>
</radialGradient>
<radialGradient id="paint7_radial_4_252" cx="0" cy="0" r="1" gradientUnits="userSpaceOnUse" gradientTransform="translate(82 26.5) rotate(148.085) scale(67.1509 89.9823)">
<stop stop-color="#505153"/>
<stop offset="1" stop-color="#3B3D42"/>
</radialGradient>
<radialGradient id="paint8_radial_4_252" cx="0" cy="0" r="1" gradientUnits="userSpaceOnUse" gradientTransform="translate(22.6829 24.386) rotate(57.2444) scale(12.2965 7.02658)">
<stop stop-color="#6E6F73"/>
<stop offset="1" stop-color="#515153"/>
</radialGradient>
<radialGradient id="paint9_radial_4_252" cx="0" cy="0" r="1" gradientUnits="userSpaceOnUse" gradientTransform="translate(25.7877 16.0004) rotate(57.2444) scale(18.7216 10.6981)">
<stop stop-color="#6E6F73"/>
<stop offset="1" stop-color="#515153"/>
</radialGradient>
</defs>
</svg>
