<svg width="250" height="73" viewBox="0 0 250 73" fill="none" xmlns="http://www.w3.org/2000/svg">
<path d="M28 71.5C16.8 71.5 10.3333 65.5 8.5 62.5V25.5C8.5 19.8333 12.2 8.5 27 8.5C41.8 8.5 45.8333 19.8333 46 25.5V64C44.6667 66.5 39.2 71.5 28 71.5Z" stroke="#405057" stroke-width="3" stroke-linecap="round"/>
<path d="M47 46.5C49.7614 46.5 52 44.2614 52 41.5C52 38.7386 49.7614 36.5 47 36.5" stroke="#405057" stroke-width="3" stroke-linecap="round"/>
<path d="M7 36.5C4.23858 36.5 2 38.7386 2 41.5C2 44.2614 4.23858 46.5 7 46.5" stroke="#405057" stroke-width="3" stroke-linecap="round"/>
<rect x="13" y="34.5" width="11" height="6" rx="2" stroke="#405057" stroke-width="2" stroke-linecap="round"/>
<rect x="30" y="34.5" width="11" height="6" rx="2" stroke="#405057" stroke-width="2" stroke-linecap="round"/>
<path d="M41.5 36.5L50.5 32M29.5 36.5H24.5M4 32L13 36.5" stroke="#405057" stroke-width="2" stroke-linecap="round" stroke-linejoin="round"/>
<path d="M45.5 53H40C39.1667 51.5 35.4 47.5 27 47.5C18.6 47.5 15.5 51.5 15 53H8.5M13.5 30.5H24M30.5 30.5C34 30.5 41 30.5 41 30.5M20 54.5C20.5 56 21.8 56.5 27 56.5C32.2 56.5 33 55.5 33.5 54.5" stroke="#405057" stroke-width="2" stroke-linecap="round"/>
<path d="M27 50.5C27 54.5 30 53.5 33.5 54.5C37 55.5 37.5 61 32 61C27.3181 61 27 57.6667 27 57" stroke="#405057" stroke-width="2" stroke-linecap="round"/>
<path d="M27.1355 50.5C27.1355 54.5 24.1355 53.5 20.6355 54.5C17.1355 55.5 16.6355 61 22.1355 61C26.8174 61 27 57.6667 27 57" stroke="#405057" stroke-width="2" stroke-linecap="round"/>
<path d="M28.5 8.5L14 23M24.5 23L33.5 14M36.5 11L33.5 14M33.5 14L46 25.5M33.5 2L35 9.5L41 4" stroke="#405057" stroke-width="3" stroke-linecap="round"/>
<ellipse cx="25" cy="45.5" rx="1" ry="0.5" fill="#405057"/>
<ellipse cx="29" cy="45.5" rx="1" ry="0.5" fill="#405057"/>
<path d="M75.7656 52.9524C73.5069 52.9524 71.5754 52.4868 69.9712 51.5556C68.3669 50.6243 67.132 49.3016 66.2665 47.5873C65.4222 45.8519 65 43.8095 65 41.4603C65 39.7037 65.2428 38.127 65.7283 36.7302C66.2138 35.3122 66.9104 34.1058 67.818 33.1111C68.7468 32.0952 69.8762 31.3228 71.206 30.7937C72.557 30.2645 74.0768 30 75.7656 30C77.011 30 78.2036 30.1693 79.3435 30.5079C80.5045 30.8466 81.5072 31.3333 82.3515 31.9683C82.7104 32.2011 82.9426 32.4868 83.0481 32.8254C83.1748 33.1429 83.1959 33.4497 83.1115 33.746C83.0481 34.0423 82.9109 34.2963 82.6998 34.5079C82.4887 34.6984 82.2143 34.8042 81.8766 34.8254C81.5599 34.8466 81.2117 34.7302 80.8317 34.4762C80.1351 33.9471 79.3646 33.5556 78.5203 33.3016C77.6759 33.0476 76.7893 32.9206 75.8605 32.9206C74.2563 32.9206 72.9053 33.2593 71.8076 33.9365C70.71 34.5926 69.8762 35.5556 69.3062 36.8254C68.7363 38.0952 68.4513 39.6402 68.4513 41.4603C68.4513 43.2804 68.7363 44.836 69.3062 46.127C69.8762 47.3968 70.71 48.3704 71.8076 49.0476C72.9053 49.7037 74.2563 50.0317 75.8605 50.0317C76.7893 50.0317 77.6759 49.9048 78.5203 49.6508C79.3857 49.3757 80.1984 48.9735 80.9583 48.4444C81.3383 48.2116 81.6761 48.1058 81.9716 48.127C82.2882 48.1481 82.5521 48.254 82.7632 48.4444C82.9742 48.6349 83.1115 48.8783 83.1748 49.1746C83.2592 49.4497 83.2487 49.746 83.1431 50.0635C83.0587 50.3598 82.8581 50.6138 82.5415 50.8254C81.6761 51.5238 80.6523 52.0529 79.4702 52.4127C78.2881 52.7725 77.0532 52.9524 75.7656 52.9524Z" fill="#405057"/>
<path d="M88.1446 52.8889C87.9335 52.8889 87.7329 52.8571 87.543 52.7937C87.3741 52.7302 87.2263 52.6243 87.0997 52.4762C86.9941 52.328 86.9097 52.1587 86.8464 51.9683C86.783 51.7566 86.7514 51.5132 86.7514 51.2381V31.619C86.7514 31.1323 86.8886 30.7513 87.163 30.4762C87.4374 30.2011 87.8174 30.0635 88.3029 30.0635C88.7884 30.0635 89.1578 30.2011 89.4111 30.4762C89.6644 30.7513 89.7911 31.1323 89.7911 31.619V48.254H89.0945L102.045 31.0159C102.319 30.6561 102.573 30.4127 102.805 30.2857C103.058 30.1376 103.375 30.0635 103.755 30.0635C104.029 30.0635 104.261 30.127 104.451 30.254C104.641 30.3598 104.789 30.5291 104.895 30.7619C105.021 30.9947 105.084 31.2698 105.084 31.5873V51.3016C105.084 51.8095 104.958 52.2011 104.705 52.4762C104.451 52.7513 104.071 52.8889 103.565 52.8889C103.079 52.8889 102.699 52.7513 102.425 52.4762C102.171 52.2011 102.045 51.8095 102.045 51.3016V34.6984H102.741L89.7911 51.9048C89.5167 52.2646 89.2739 52.5185 89.0628 52.6667C88.8517 52.8148 88.5456 52.8889 88.1446 52.8889Z" fill="#405057"/>
<path d="M119.882 52.9524C117.623 52.9524 115.692 52.4868 114.088 51.5556C112.483 50.6243 111.248 49.3016 110.383 47.5873C109.539 45.8519 109.116 43.8095 109.116 41.4603C109.116 39.7037 109.359 38.127 109.845 36.7302C110.33 35.3122 111.027 34.1058 111.935 33.1111C112.863 32.0952 113.993 31.3228 115.323 30.7937C116.673 30.2645 118.193 30 119.882 30C121.127 30 122.32 30.1693 123.46 30.5079C124.621 30.8466 125.624 31.3333 126.468 31.9683C126.827 32.2011 127.059 32.4868 127.165 32.8254C127.291 33.1429 127.312 33.4497 127.228 33.746C127.165 34.0423 127.027 34.2963 126.816 34.5079C126.605 34.6984 126.331 34.8042 125.993 34.8254C125.676 34.8466 125.328 34.7302 124.948 34.4762C124.252 33.9471 123.481 33.5556 122.637 33.3016C121.792 33.0476 120.906 32.9206 119.977 32.9206C118.373 32.9206 117.022 33.2593 115.924 33.9365C114.826 34.5926 113.993 35.5556 113.423 36.8254C112.853 38.0952 112.568 39.6402 112.568 41.4603C112.568 43.2804 112.853 44.836 113.423 46.127C113.993 47.3968 114.826 48.3704 115.924 49.0476C117.022 49.7037 118.373 50.0317 119.977 50.0317C120.906 50.0317 121.792 49.9048 122.637 49.6508C123.502 49.3757 124.315 48.9735 125.075 48.4444C125.455 48.2116 125.793 48.1058 126.088 48.127C126.405 48.1481 126.669 48.254 126.88 48.4444C127.091 48.6349 127.228 48.8783 127.291 49.1746C127.376 49.4497 127.365 49.746 127.26 50.0635C127.175 50.3598 126.975 50.6138 126.658 50.8254C125.793 51.5238 124.769 52.0529 123.587 52.4127C122.405 52.7725 121.17 52.9524 119.882 52.9524Z" fill="#405057"/>
<path d="M131.286 52.8889C130.864 52.8889 130.526 52.7937 130.273 52.6032C130.019 52.4127 129.872 52.1587 129.829 51.8413C129.787 51.5238 129.85 51.164 130.019 50.7619L138.6 31.4603C138.811 30.9524 139.075 30.5926 139.392 30.381C139.729 30.1693 140.099 30.0635 140.5 30.0635C140.88 30.0635 141.228 30.1693 141.545 30.381C141.882 30.5926 142.157 30.9524 142.368 31.4603L150.949 50.7619C151.139 51.164 151.213 51.5344 151.17 51.873C151.128 52.1905 150.991 52.4444 150.759 52.6349C150.527 52.8042 150.199 52.8889 149.777 52.8889C149.313 52.8889 148.943 52.7725 148.669 52.5397C148.395 52.3069 148.152 51.9471 147.941 51.4603L145.724 46.3175L147.212 47.2063H133.724L135.18 46.3175L132.996 51.4603C132.785 51.9683 132.552 52.3386 132.299 52.5714C132.046 52.7831 131.708 52.8889 131.286 52.8889ZM140.437 33.9365L135.655 45.3016L134.864 44.5397H146.041L145.313 45.3016L140.5 33.9365H140.437Z" fill="#405057"/>
<path d="M154.727 58C154.242 58 153.872 57.8624 153.619 57.5873C153.366 57.3333 153.239 56.963 153.239 56.4762V51.5556C153.239 50.5185 153.767 50 154.822 50H156.944L154.98 50.5079C156.205 49.2381 157.102 47.4286 157.672 45.0794C158.263 42.709 158.558 39.7143 158.558 36.0952V32.0635C158.558 31.4921 158.706 31.0582 159.002 30.7619C159.318 30.4444 159.762 30.2857 160.332 30.2857H172.079C172.649 30.2857 173.081 30.4444 173.377 30.7619C173.672 31.0582 173.82 31.4921 173.82 32.0635V51.2698L172.585 50H175.435C175.942 50 176.322 50.1376 176.575 50.4127C176.849 50.6667 176.986 51.0476 176.986 51.5556V56.4762C176.986 57.4921 176.512 58 175.562 58C175.076 58 174.707 57.8624 174.453 57.5873C174.2 57.3333 174.073 56.963 174.073 56.4762V52.6667H156.184V56.4762C156.184 57.4921 155.698 58 154.727 58ZM158.812 50H170.559V32.9524H161.63V36.3492C161.63 39.6085 161.398 42.3386 160.933 44.5397C160.469 46.7407 159.762 48.5608 158.812 50Z" fill="#405057"/>
<path d="M180.452 52.8889C179.966 52.8889 179.586 52.7513 179.312 52.4762C179.058 52.2011 178.932 51.8201 178.932 51.3333V31.619C178.932 31.1111 179.069 30.7302 179.343 30.4762C179.618 30.2011 179.987 30.0635 180.452 30.0635C180.895 30.0635 181.233 30.1481 181.465 30.3175C181.718 30.4656 181.95 30.7407 182.161 31.1429L190.457 46.6667H189.476L197.74 31.1429C197.951 30.7407 198.173 30.4656 198.405 30.3175C198.637 30.1481 198.975 30.0635 199.418 30.0635C199.882 30.0635 200.241 30.2011 200.495 30.4762C200.748 30.7302 200.874 31.1111 200.874 31.619V51.3333C200.874 51.8201 200.748 52.2011 200.495 52.4762C200.262 52.7513 199.904 52.8889 199.418 52.8889C198.932 52.8889 198.563 52.7513 198.31 52.4762C198.056 52.2011 197.93 51.8201 197.93 51.3333V34.9524H198.626L191.281 48.5714C191.112 48.8889 190.932 49.1217 190.742 49.2698C190.552 49.418 190.288 49.4921 189.951 49.4921C189.613 49.4921 189.338 49.418 189.127 49.2698C188.916 49.1005 188.726 48.8677 188.557 48.5714L181.148 34.9206H181.908V51.3333C181.908 51.8201 181.781 52.2011 181.528 52.4762C181.296 52.7513 180.937 52.8889 180.452 52.8889Z" fill="#405057"/>
<path d="M208.167 52.8889C207.956 52.8889 207.756 52.8571 207.566 52.7937C207.397 52.7302 207.249 52.6243 207.123 52.4762C207.017 52.328 206.933 52.1587 206.869 51.9683C206.806 51.7566 206.774 51.5132 206.774 51.2381V31.619C206.774 31.1323 206.911 30.7513 207.186 30.4762C207.46 30.2011 207.84 30.0635 208.326 30.0635C208.811 30.0635 209.181 30.2011 209.434 30.4762C209.687 30.7513 209.814 31.1323 209.814 31.619V48.254H209.117L222.068 31.0159C222.342 30.6561 222.595 30.4127 222.828 30.2857C223.081 30.1376 223.398 30.0635 223.778 30.0635C224.052 30.0635 224.284 30.127 224.474 30.254C224.664 30.3598 224.812 30.5291 224.917 30.7619C225.044 30.9947 225.107 31.2698 225.107 31.5873V51.3016C225.107 51.8095 224.981 52.2011 224.727 52.4762C224.474 52.7513 224.094 52.8889 223.588 52.8889C223.102 52.8889 222.722 52.7513 222.448 52.4762C222.194 52.2011 222.068 51.8095 222.068 51.3016V34.6984H222.764L209.814 51.9048C209.54 52.2646 209.297 52.5185 209.086 52.6667C208.875 52.8148 208.569 52.8889 208.167 52.8889Z" fill="#405057"/>
<path d="M232.585 52.8889C232.057 52.8889 231.646 52.7407 231.35 52.4444C231.076 52.1481 230.939 51.7355 230.939 51.2064V31.746C230.939 31.1958 231.076 30.7831 231.35 30.5079C231.646 30.2116 232.057 30.0635 232.585 30.0635C233.113 30.0635 233.514 30.2116 233.788 30.5079C234.084 30.7831 234.232 31.1958 234.232 31.746V39.9365H246.739V31.746C246.739 31.1958 246.876 30.7831 247.15 30.5079C247.446 30.2116 247.857 30.0635 248.385 30.0635C248.913 30.0635 249.314 30.2116 249.588 30.5079C249.863 30.7831 250 31.1958 250 31.746V51.2064C250 51.7355 249.863 52.1481 249.588 52.4444C249.314 52.7407 248.913 52.8889 248.385 52.8889C247.857 52.8889 247.446 52.7407 247.15 52.4444C246.876 52.1481 246.739 51.7355 246.739 51.2064V42.6984H234.232V51.2064C234.232 51.7355 234.094 52.1481 233.82 52.4444C233.546 52.7407 233.134 52.8889 232.585 52.8889Z" fill="#405057"/>
</svg>
